<?xml version="1.0" encoding="utf-8"?>
<!-- Generator: Adobe Illustrator 16.0.3, SVG Export Plug-In . SVG Version: 6.00 Build 0)  -->
<!DOCTYPE svg PUBLIC "-//W3C//DTD SVG 1.1//EN" "http://www.w3.org/Graphics/SVG/1.1/DTD/svg11.dtd">
<svg version="1.1" xmlns="http://www.w3.org/2000/svg" xmlns:xlink="http://www.w3.org/1999/xlink" x="0px" y="0px" width="1280px"
	 height="800px" viewBox="0 0 1280 800" enable-background="new 0 0 1280 800" xml:space="preserve">
<g id="Capa_1" display="none">
</g>
<g id="Capa_2" display="none">
	<g display="inline">
		<rect x="1388" y="34" fill="none" width="596.667" height="55"/>
		<path fill="#282828" d="M1405.5,49h-15v-2.5h2.5V44h2.5v-2.5h2.5V39h-7.5v-2.5h15V39h-2.5v2.5h-2.5V44h-2.5v2.5h7.5V49z"/>
		<path fill="#282828" d="M1425.5,44h-10v2.5h7.5V49h-10v-2.5h-2.5V39h2.5v-2.5h10V39h2.5V44z M1420.5,41.5V39h-5v2.5H1420.5z"/>
		<path fill="#282828" d="M1445.5,41.5h-5V39h-5v10h-5V36.5h12.5V39h2.5V41.5z"/>
		<path fill="#282828" d="M1465.5,46.5h-2.5V49h-10v-2.5h-2.5V39h2.5v-2.5h10V39h2.5V46.5z M1460.5,46.5V39h-5v7.5H1460.5z"/>
		<path fill="#282828" d="M1505.5,49h-15v-5h2.5v-2.5h2.5V39h2.5v-2.5h-7.5V34h15v2.5h-2.5V39h-2.5v2.5h-2.5V44h-2.5v2.5h10V49z"/>
		<path fill="#282828" d="M1525.5,49h-15V34h15v2.5h-10V39h7.5v2.5h-7.5v5h10V49z"/>
		<path fill="#282828" d="M1545.5,49h-5v-2.5h-2.5V44h-2.5v5h-5V34h12.5v2.5h2.5v5h-2.5v5h2.5V49z M1540.5,41.5v-5h-5v5H1540.5z"/>
		<path fill="#282828" d="M1565.5,46.5h-2.5V49h-10v-2.5h-2.5v-10h2.5V34h10v2.5h2.5V46.5z M1560.5,46.5v-10h-5v10H1560.5z"/>
		<path fill="#282828" d="M1605.5,49h-15v-1.25l8.75-8.75h-8.75v-2.5h15v1.25l-8.75,8.75h8.75V49z"/>
		<path fill="#282828" d="M1625.5,44h-10c0,0.684,0.246,1.271,0.737,1.763s1.079,0.737,1.763,0.737h5V49h-7.5
			c-1.384,0-2.563-0.487-3.537-1.462c-0.976-0.975-1.463-2.154-1.463-3.538v-2.5c0-1.383,0.487-2.563,1.463-3.538
			c0.975-0.975,2.153-1.462,3.537-1.462h5c1.383,0,2.563,0.487,3.537,1.462c0.976,0.975,1.463,2.154,1.463,3.538V44z M1620.5,41.5
			c0-0.683-0.246-1.271-0.737-1.763C1619.271,39.246,1618.684,39,1618,39s-1.271,0.246-1.763,0.737
			c-0.491,0.492-0.737,1.08-0.737,1.763H1620.5z"/>
		<path fill="#282828" d="M1640.5,41.5c0-0.683-0.246-1.271-0.737-1.763C1639.271,39.246,1638.684,39,1638,39h-2.5v10h-5V36.5h10
			c1.383,0,2.563,0.487,3.537,1.462c0.976,0.975,1.463,2.154,1.463,3.538H1640.5z"/>
		<path fill="#282828" d="M1665.5,44c0,1.384-0.487,2.563-1.463,3.538c-0.975,0.975-2.154,1.462-3.537,1.462h-5
			c-1.384,0-2.563-0.487-3.537-1.462c-0.976-0.975-1.463-2.154-1.463-3.538v-2.5c0-1.383,0.487-2.563,1.463-3.538
			c0.975-0.975,2.153-1.462,3.537-1.462h5c1.383,0,2.563,0.487,3.537,1.462c0.976,0.975,1.463,2.154,1.463,3.538V44z M1660.5,44
			v-2.5c0-0.683-0.246-1.271-0.737-1.763C1659.271,39.246,1658.684,39,1658,39s-1.271,0.246-1.763,0.737
			c-0.491,0.492-0.737,1.08-0.737,1.763V44c0,0.684,0.246,1.271,0.737,1.763s1.079,0.737,1.763,0.737s1.271-0.246,1.763-0.737
			C1660.254,45.271,1660.5,44.684,1660.5,44z"/>
		<path fill="#282828" d="M1705.5,49h-15v-3.75l8.75-8.75h-8.75V34h15v1.25l-11.25,11.25h11.25V49z"/>
		<path fill="#282828" d="M1725.5,49h-15V34h15v2.5h-10V39h7.5v2.5h-7.5v5h10V49z"/>
		<path fill="#282828" d="M1746.75,49h-5l-5-5h-1.25v5h-5V34h10c1.383,0,2.563,0.487,3.537,1.462
			c0.976,0.975,1.463,2.154,1.463,3.538c0,1.167-0.362,2.204-1.088,3.112c-0.725,0.909-1.654,1.496-2.787,1.763L1746.75,49z
			 M1740.5,39c0-0.683-0.246-1.271-0.737-1.763c-0.492-0.491-1.079-0.737-1.763-0.737h-2.5v5h2.5c0.684,0,1.271-0.246,1.763-0.737
			C1740.254,40.271,1740.5,39.684,1740.5,39z"/>
		<path fill="#282828" d="M1765.5,44c0,1.384-0.487,2.563-1.463,3.538c-0.975,0.975-2.154,1.462-3.537,1.462h-5
			c-1.384,0-2.563-0.487-3.537-1.462c-0.976-0.975-1.463-2.154-1.463-3.538v-5c0-1.383,0.487-2.563,1.463-3.538
			c0.975-0.975,2.153-1.462,3.537-1.462h5c1.383,0,2.563,0.487,3.537,1.462c0.976,0.975,1.463,2.154,1.463,3.538V44z M1760.5,44v-5
			c0-0.683-0.246-1.271-0.737-1.763c-0.492-0.491-1.079-0.737-1.763-0.737s-1.271,0.246-1.763,0.737
			c-0.491,0.492-0.737,1.08-0.737,1.763v5c0,0.684,0.246,1.271,0.737,1.763s1.079,0.737,1.763,0.737s1.271-0.246,1.763-0.737
			C1760.254,45.271,1760.5,44.684,1760.5,44z"/>
		<path fill="#282828" d="M1805.5,49h-15v-2.5h2.5V44h2.5v-2.5h2.5V39h-7.5v-2.5h15V39h-2.5v2.5h-2.5V44h-2.5v2.5h7.5V49z"/>
		<path fill="#282828" d="M1825.5,44h-10v2.5h7.5V49h-10v-2.5h-2.5V39h2.5v-2.5h10V39h2.5V44z M1820.5,41.5V39h-5v2.5H1820.5z"/>
		<path fill="#282828" d="M1845.5,41.5h-5V39h-5v10h-5V36.5h12.5V39h2.5V41.5z"/>
		<path fill="#282828" d="M1865.5,46.5h-2.5V49h-10v-2.5h-2.5V39h2.5v-2.5h10V39h2.5V46.5z M1860.5,46.5V39h-5v7.5H1860.5z"/>
		<path fill="#282828" d="M1905.5,49h-15v-5h2.5v-2.5h2.5V39h2.5v-2.5h-7.5V34h15v2.5h-2.5V39h-2.5v2.5h-2.5V44h-2.5v2.5h10V49z"/>
		<path fill="#282828" d="M1925.5,49h-15V34h15v2.5h-10V39h7.5v2.5h-7.5v5h10V49z"/>
		<path fill="#282828" d="M1945.5,49h-5v-2.5h-2.5V44h-2.5v5h-5V34h12.5v2.5h2.5v5h-2.5v5h2.5V49z M1940.5,41.5v-5h-5v5H1940.5z"/>
		<path fill="#282828" d="M1965.5,46.5h-2.5V49h-10v-2.5h-2.5v-10h2.5V34h10v2.5h2.5V46.5z M1960.5,46.5v-10h-5v10H1960.5z"/>
		<path fill="#282828" d="M1405.5,73h-15v-1.25l8.75-8.75h-8.75v-2.5h15v1.25l-8.75,8.75h8.75V73z"/>
		<path fill="#282828" d="M1425.5,68h-10v2.5h7.5V73h-8.75l-3.75-3.75v-5l3.75-3.75h7.5l3.75,3.75V68z M1420.5,65.5V63h-5v2.5
			H1420.5z"/>
		<path fill="#282828" d="M1445.5,65.5h-5V63h-5v10h-5V60.5h11.25l3.75,3.75V65.5z"/>
		<path fill="#282828" d="M1465.5,69.25l-3.75,3.75h-7.5l-3.75-3.75v-5l3.75-3.75h7.5l3.75,3.75V69.25z M1460.5,70.5V63h-5v7.5
			H1460.5z"/>
		<path fill="#282828" d="M1505.5,73h-15v-3.75l8.75-8.75h-8.75V58h15v1.25l-11.25,11.25h11.25V73z"/>
		<path fill="#282828" d="M1525.5,73h-15V58h15v2.5h-10V63h7.5v2.5h-7.5v5h10V73z"/>
		<path fill="#282828" d="M1546.75,73h-5l-5-5h-1.25v5h-5V58h11.25l3.75,3.75v2.5l-3.75,3.75L1546.75,73z M1540.5,65.5v-5h-5v5
			H1540.5z"/>
		<path fill="#282828" d="M1565.5,69.25l-3.75,3.75h-7.5l-3.75-3.75v-7.5l3.75-3.75h7.5l3.75,3.75V69.25z M1560.5,70.5v-10h-5v10
			H1560.5z"/>
	</g>
	<g display="inline">
		<rect x="1399" y="94" fill="none" width="124" height="31"/>
		<path fill="#282828" d="M1414.625,97.906H1399V94h27.344v7.813h-3.906v3.906h-3.906v3.906h-3.906v3.906h-3.906v3.906l15.801-0.039
			v3.945H1399v-7.813h3.906v-3.906h3.906v-3.906h3.906v-3.906h3.906V97.906z"/>
		<path fill="#282828" d="M1453.688,109.625h-15.625v7.813h15.625v3.906h-23.438V94h23.438v3.906h-15.625v7.813h15.625V109.625z"/>
		<path fill="#282828" d="M1465.406,113.531v7.813h-7.813V94h23.438v3.906h3.906v11.719h-7.813v3.906h3.906v3.906l4.082-0.039v3.945
			h-11.895v-3.906h-3.906v-3.906H1465.406z M1465.406,97.906v11.719h7.813v-3.906h3.906v-7.813H1465.406z"/>
		<path fill="#282828" d="M1512.281,121.344h-19.531v-3.906h-3.906V97.906h3.906V94h19.531v3.906h3.906v19.531h-3.906V121.344z
			 M1508.375,97.906h-11.719v19.531h11.719V97.906z"/>
	</g>
	<g display="inline">
		<path fill="#282828" d="M1710.803,364.868h-173.167v-57.721h28.86v-28.861h28.863v-28.862h28.861v-28.862h-86.585v-28.861h173.167
			v28.861h-28.861v28.862h-28.86v28.862h-28.86v28.861h-28.861v28.862h115.443V364.868z"/>
		<path fill="#282828" d="M1941.693,364.868h-173.167V191.701h173.167v28.861h-115.445v28.862h86.586v28.862h-86.586v57.723h115.445
			V364.868z"/>
		<path fill="#282828" d="M2172.586,364.868h-57.724v-28.859h-28.859v-28.862h-28.861v57.721h-57.724V191.701h144.307v28.861h28.861
			v57.724h-28.861v57.723h28.861V364.868z M2114.862,278.286v-57.724h-57.721v57.724H2114.862z"/>
		<path fill="#282828" d="M2403.477,336.009h-28.861v28.859h-115.444v-28.859h-28.861V220.562h28.861v-28.861h115.444v28.861h28.861
			V336.009z M2345.756,336.009V220.562h-57.724v115.447H2345.756z"/>
	</g>
	<g display="inline">
		<path fill="#282828" d="M1713.867,422.467H1624V400h157.27v44.934h-22.469v22.469h-22.467v22.467h-22.467v22.467H1691.4v22.467
			l90.879-0.225v22.691H1624v-44.934h22.467v-22.467h22.467v-22.467h22.467v-22.469h22.467V422.467z"/>
		<path fill="#282828" d="M1938.537,489.869h-89.867v44.934h89.867v22.467h-134.801V400h134.801v22.467h-89.867v44.936h89.867
			V489.869z"/>
		<path fill="#282828" d="M2005.939,512.336v44.934h-44.934V400h134.802v22.467h22.467v67.402h-44.934v22.467h22.467v22.467
			l23.479-0.225v22.691h-68.412v-22.467h-22.468v-22.467H2005.939z M2005.939,422.467v67.402h44.935v-22.467h22.467v-44.936
			H2005.939z"/>
		<path fill="#282828" d="M2275.544,557.27h-112.336v-22.467h-22.467V422.467h22.467V400h112.336v22.467h22.467v112.336h-22.467
			V557.27z M2253.077,422.467h-67.402v112.336h67.402V422.467z"/>
	</g>
	<g display="inline">
		<path fill="#282828" d="M2036,623.279l-12.691,0.104l0.069-12.383h-92.317l0.039,10.635l-2.861-0.267l-7.028,0.267L1921.176,611
			h-89.348h-15.832h-73.523h-15.653H1624v40.71l14.843-0.36c3.634-0.09,7.157-0.178,11.157-0.263v9.011l-12.735,1.195l-0.257,12.8
			c-0.088,0.012-13.008,1.583-13.008,1.583v55.001l16.954-2.906c29.225-5.101,59.212-9.063,88.748-11.773l8.686-0.793l3.448-0.264
			c25.123-2.028,50.278-3.221,75.493-3.511l13.671-0.195v-0.017c8,0.02,16.371,0.191,24.309,0.374l12.848,0.381l12.739,0.582
			c12.784,0.589,25.777,1.413,38.524,2.449l12.245,0.989l12.45,1.294c20.93,2.175,42.084,4.992,62.862,8.372l16.469,2.685
			l-0.048-12.746l12.602,1.895V623.279z M1716.719,672.289l9.889-0.446l-0.016,4.727c-3.293,0.268-6.588,0.543-9.89,0.837
			L1716.719,672.289z M1972.49,680.285l-0.101-29.997c3.284,0.061,6.571,0.122,9.854,0.187l0.056,30.917
			C1979.031,681.011,1975.759,680.642,1972.49,680.285z"/>
		<g>
			<path fill="#F4F4F4" d="M1689.688,637.328c-17.021,0.309-34.039,0.674-51.049,1.096c0-4.258,0-8.514,0-12.771
				c29.799,0,59.6,0,89.398,0c-0.025,7.384-0.052,14.768-0.078,22.15c-4.258,0.112-8.516,0.231-12.772,0.358
				c-0.013,3.752-0.026,7.503-0.04,11.255c-4.256,0.189-8.512,0.39-12.767,0.601c-0.013,3.817-0.025,7.636-0.038,11.454
				c-4.254,0.281-8.506,0.576-12.758,0.885c-0.012,3.893-0.023,7.784-0.035,11.676c-4.25,0.387-8.498,0.79-12.744,1.212
				c-0.011,3.973-0.021,7.945-0.03,11.918c17.169-2.085,34.374-3.822,51.603-5.213c-0.014,3.726-0.026,7.452-0.039,11.179
				c-30.009,2.755-59.934,6.73-89.699,11.925c0-8.514,0-17.028,0-25.542c4.234-0.527,8.471-1.036,12.709-1.527
				c0.004-4.156,0.008-8.311,0.012-12.466c4.243-0.394,8.487-0.772,12.732-1.138c0.008-4.061,0.016-8.121,0.022-12.182
				c4.249-0.273,8.498-0.537,12.749-0.79c0.01-3.974,0.02-7.945,0.029-11.919c4.253-0.169,8.506-0.33,12.761-0.484
				C1689.665,645.112,1689.677,641.22,1689.688,637.328z"/>
			<path fill="#F4F4F4" d="M1817.408,667.3c-17.064,0.112-34.127,0.449-51.179,1.011c-0.021,7.109-0.04,14.22-0.062,21.329
				c17.064-0.844,34.145-1.349,51.227-1.518c-0.002,3.471-0.004,6.941-0.007,10.411c-25.637,0.296-51.266,1.476-76.841,3.54
				c0.087-25.474,0.174-50.947,0.262-76.421c25.543,0,51.084,0,76.627,0c-0.002,3.471-0.004,6.941-0.007,10.412
				c-17.037,0.027-34.073,0.111-51.108,0.253c-0.02,7.109-0.041,14.219-0.061,21.329c17.047-0.421,34.1-0.675,51.155-0.759
				C1817.412,660.358,1817.41,663.829,1817.408,667.3z"/>
			<path fill="#F4F4F4" d="M1855.817,677.869c0.009,6.962,0.018,13.924,0.026,20.886c-8.544-0.196-17.09-0.295-25.637-0.295
				c0-24.27,0-48.538,0-72.808c25.543,0,51.086,0,76.629,0c0.011,3.594,0.021,7.187,0.033,10.78
				c4.258,0.042,8.516,0.088,12.773,0.137c0.039,10.918,0.076,21.835,0.113,32.753c-8.521-0.394-17.044-0.73-25.57-1.012
				c0.01,3.555,0.021,7.109,0.031,10.664c4.264,0.176,8.527,0.369,12.791,0.58c0.011,3.593,0.023,7.187,0.034,10.779
				c4.456,0.229,8.911,0.479,13.364,0.753c0.014,3.678,0.025,7.355,0.039,11.033c-12.98-1.055-25.974-1.881-38.975-2.48
				c-0.009-3.523-0.017-7.046-0.025-10.569c-4.268-0.169-8.537-0.316-12.806-0.442c-0.007-3.499-0.013-6.997-0.021-10.496
				C1864.354,678.026,1860.086,677.939,1855.817,677.869z M1855.764,636.096c0.013,10.443,0.027,20.887,0.041,31.33
				c8.531,0.112,17.062,0.281,25.59,0.506c-0.008-3.523-0.018-7.047-0.025-10.57c4.263,0.085,8.525,0.18,12.786,0.285
				c-0.021-7.11-0.041-14.22-0.062-21.329C1881.318,636.212,1868.541,636.138,1855.764,636.096z"/>
			<path fill="#F4F4F4" d="M2009.092,712.913c-21.156-3.44-42.389-6.269-63.668-8.48c-0.013-3.751-0.025-7.502-0.039-11.254
				c-4.256-0.379-8.513-0.737-12.773-1.074c-0.064-18.459-0.129-36.918-0.195-55.377c4.258,0.057,8.516,0.116,12.771,0.179
				c-0.014-3.751-0.025-7.502-0.039-11.254c21.286,0,42.572,0,63.857,0c0.003,4.155,0.008,8.311,0.012,12.466
				c4.254,0.099,8.506,0.2,12.76,0.306c0,21.285,0,42.571,0,63.856c-4.23-0.632-8.463-1.242-12.698-1.833
				C2009.083,704.603,2009.088,708.758,2009.092,712.913z M1996.257,637.834c-12.764-0.274-25.53-0.517-38.299-0.727
				c0.063,19.091,0.126,38.182,0.189,57.272c12.758,1.264,25.499,2.718,38.219,4.361
				C1996.33,678.438,1996.293,658.136,1996.257,637.834z"/>
		</g>
	</g>
	<g display="inline">
		<g>
			<path fill="#282828" d="M2505,638.128l-12.583-0.092L2492.044,626h-88.325l0.038,10.363l-2.738-0.159l-6.725,0.112L2394.262,626
				h-85.483h-15.147h-70.344h-14.977H2110v39.329l14.185-0.346c3.478-0.087,7.13-0.17,10.622-0.251l0.018,8.621l-12.189,1.144
				l-0.217,12.246c-0.085,0.011-12.418,1.515-12.418,1.515v18.525l-36.94,11.375l36.851,22.722l16.235-2.781
				c27.961-4.88,56.658-8.67,84.918-11.264l8.313-0.759l3.301-0.252c24.037-1.941,48.612-3.081,72.736-3.359l13.587-0.187v-0.016
				c8,0.018,15.156,0.183,22.751,0.357l12.038,0.364l12.06,0.558c12.233,0.563,24.601,1.351,36.796,2.343l11.685,0.946l11.896,1.237
				c20.024,2.082,40.255,4.776,60.134,8.011l15.754,2.568l35.289-23.145L2505,704.811V638.128z M2208.093,689.112
				c-3.149,0.256-6.304,0.52-9.461,0.802l0.016-4.896l9.461-0.427L2208.093,689.112z M2443.356,692.667l-0.096-28.699
				c3.143,0.058,6.287,0.117,9.428,0.179l0.054,29.58C2449.615,693.362,2446.484,693.009,2443.356,692.667z"/>
			<polygon fill="#282828" points="2533.151,689.572 2520.373,694.371 2516.005,707.204 2527.188,715.503 2541.455,703.151 			"/>
		</g>
		<path fill="#282828" d="M2541,595.912l-14.21-0.35l0.315-14.563h-105.081l0.045,12.572l-3.257-0.068l-8.001-0.049L2410.773,581
			h-101.701h-18.021h-83.689h-17.817H2073v47.273l16.668-0.41c4.136-0.103,8.377-0.202,12.532-0.299l-0.031,10.257l-14.528,1.36
			l-0.063,14.57c-0.101,0.013-14.577,1.801-14.577,1.801v62.605l19.054-3.309c33.265-5.806,67.275-10.314,100.896-13.4l9.825-0.902
			l3.895-0.3c28.598-2.31,57.649-3.667,86.351-3.997l15.98-0.223v-0.018c9,0.021,18.199,0.217,27.234,0.425l14.405,0.434
			l14.392,0.663c14.553,0.67,29.288,1.607,43.797,2.787l13.911,1.126l14.159,1.473c23.822,2.477,47.896,5.683,71.547,9.53
			l18.742,3.056l-0.292-14.509l14.104,2.157V595.912z M2178.049,651.698l11.255-0.508l-0.019,5.379
			c-3.746,0.305-7.498,0.619-11.256,0.954L2178.049,651.698z M2469.182,660.8l-0.113-34.145c3.737,0.068,7.479,0.14,11.216,0.213
			l0.063,35.191C2476.628,661.626,2472.902,661.205,2469.182,660.8z"/>
		<g>
			<path fill="#FFFFFF" d="M2147.28,611.904c-19.376,0.351-38.746,0.767-58.108,1.246c0-4.846,0-9.69,0-14.537
				c33.921,0,67.84,0,101.76,0c-0.029,8.405-0.06,16.809-0.089,25.213c-4.847,0.128-9.693,0.264-14.539,0.408
				c-0.015,4.271-0.03,8.54-0.044,12.812c-4.846,0.215-9.689,0.443-14.533,0.683c-0.014,4.346-0.028,8.692-0.043,13.038
				c-4.842,0.319-9.684,0.656-14.521,1.007c-0.014,4.431-0.027,8.86-0.04,13.291c-4.838,0.439-9.674,0.898-14.508,1.379
				c-0.011,4.521-0.022,9.043-0.033,13.565c19.543-2.374,39.126-4.351,58.737-5.934c-0.016,4.241-0.03,8.482-0.045,12.724
				c-34.157,3.137-68.22,7.661-102.102,13.574c0-9.691,0-19.383,0-29.074c4.82-0.6,9.643-1.179,14.468-1.738
				c0.004-4.729,0.009-9.459,0.014-14.188c4.829-0.448,9.659-0.88,14.492-1.296c0.008-4.621,0.017-9.243,0.025-13.865
				c4.836-0.312,9.673-0.611,14.511-0.898c0.012-4.523,0.022-9.045,0.034-13.567c4.841-0.192,9.683-0.376,14.524-0.552
				C2147.254,620.764,2147.268,616.333,2147.28,611.904z"/>
			<path fill="#FFFFFF" d="M2292.659,646.019c-19.424,0.128-38.845,0.512-58.255,1.151c-0.023,8.092-0.047,16.185-0.069,24.277
				c19.424-0.96,38.864-1.535,58.309-1.727c-0.003,3.95-0.006,7.9-0.009,11.851c-29.181,0.336-58.354,1.679-87.465,4.029
				c0.1-28.995,0.199-57.991,0.299-86.987c29.073,0,58.146,0,87.221,0c-0.003,3.951-0.005,7.9-0.008,11.852
				c-19.392,0.032-38.784,0.127-58.174,0.288c-0.023,8.093-0.047,16.186-0.069,24.277c19.403-0.479,38.814-0.767,58.229-0.863
				C2292.664,638.118,2292.662,642.068,2292.659,646.019z"/>
			<path fill="#FFFFFF" d="M2336.379,658.05c0.01,7.924,0.02,15.849,0.03,23.773c-9.727-0.224-19.453-0.336-29.182-0.336
				c0-27.624,0-55.249,0-82.874c29.074,0,58.148,0,87.223,0c0.013,4.091,0.025,8.181,0.039,12.271
				c4.847,0.048,9.692,0.101,14.539,0.156c0.043,12.427,0.086,24.854,0.129,37.28c-9.699-0.447-19.4-0.83-29.106-1.15
				c0.012,4.046,0.024,8.092,0.035,12.139c4.854,0.199,9.707,0.419,14.56,0.659c0.013,4.091,0.027,8.181,0.04,12.271
				c5.072,0.26,10.143,0.545,15.211,0.856c0.016,4.187,0.029,8.373,0.045,12.559c-14.774-1.2-29.564-2.142-44.363-2.823
				c-0.01-4.01-0.019-8.02-0.028-12.03c-4.858-0.192-9.718-0.36-14.576-0.504c-0.008-3.982-0.016-7.965-0.022-11.946
				C2346.094,658.229,2341.236,658.129,2336.379,658.05z M2336.316,610.501c0.016,11.887,0.031,23.773,0.047,35.662
				c9.711,0.127,19.421,0.319,29.128,0.575c-0.009-4.011-0.019-8.021-0.029-12.031c4.854,0.096,9.705,0.204,14.555,0.323
				c-0.022-8.092-0.047-16.185-0.069-24.277C2365.405,610.633,2350.861,610.549,2336.316,610.501z"/>
			<path fill="#FFFFFF" d="M2510.845,697.939c-24.082-3.917-48.25-7.136-72.471-9.653c-0.015-4.271-0.029-8.54-0.044-12.811
				c-4.846-0.431-9.69-0.839-14.54-1.223c-0.073-21.011-0.147-42.021-0.222-63.032c4.846,0.063,9.691,0.131,14.536,0.203
				c-0.015-4.271-0.028-8.54-0.044-12.811c24.229,0,48.457,0,72.686,0c0.004,4.73,0.009,9.46,0.014,14.189
				c4.842,0.112,9.682,0.228,14.523,0.348c0,24.229,0,48.457,0,72.686c-4.815-0.72-9.633-1.414-14.453-2.086
				C2510.835,688.479,2510.84,693.209,2510.845,697.939z M2496.234,612.479c-14.527-0.312-29.06-0.587-43.594-0.826
				c0.072,21.73,0.144,43.46,0.216,65.19c14.521,1.438,29.024,3.094,43.503,4.965
				C2496.318,658.698,2496.276,635.589,2496.234,612.479z"/>
		</g>
	</g>
	<g display="inline">
		<g>
			<path fill="#282828" d="M1584,649.495l-7.518-0.063l0.015-7.432h-54.485l0.023,6.399l-1.689-0.095l-4.148,0.063l-0.02-6.368
				h-52.732h-9.344h-43.394h-9.238H1341v24.274l8.662-0.213c2.146-0.054,4.354-0.104,6.509-0.155l-0.011,5.318l-7.531,0.705
				l-0.051,7.555c-0.053,0.007-7.578,0.935-7.578,0.935v11.428l-22.875,7.017l22.688,14.017l9.994-1.716
				c17.248-3.01,34.939-5.348,52.372-6.948l5.122-0.468l2.034-0.155c14.827-1.198,30.194-1.901,45.076-2.072l8.589-0.115v-0.01
				c5,0.011,9.141,0.112,13.825,0.221l7.322,0.225l7.386,0.344c7.547,0.348,15.15,0.833,22.673,1.445l7.194,0.584l7.333,0.763
				c12.353,1.284,24.828,2.946,37.091,4.941l9.718,1.585l21.522-14.277L1584,690.63V649.495z M1401.335,680.946
				c-1.942,0.157-3.889,0.32-5.836,0.494l0.01-3.021l5.836-0.264L1401.335,680.946z M1546.463,683.139l-0.059-17.704
				c1.938,0.036,3.878,0.072,5.815,0.11l0.033,18.247C1550.324,683.567,1548.393,683.35,1546.463,683.139z"/>
			<polygon fill="#282828" points="1601.855,681.229 1593.973,684.189 1591.277,692.106 1598.177,697.226 1606.978,689.606 			"/>
		</g>
		<path fill="#7A10B2" d="M1607,623.453l-8.918-0.343l0.043-9.11h-64.821l0.027,7.883l-2.009,0.021l-4.936-0.125l-0.023-7.779
			h-62.736h-11.117h-51.625h-10.991H1318v29.416l10.282-0.253c2.551-0.063,5.167-0.125,7.73-0.185l-0.02,6.327l-8.962,0.839
			l-0.039,8.988c-0.063,0.008-8.992,1.111-8.992,1.111v38.619l11.754-2.041c20.52-3.581,41.5-6.362,62.239-8.266l6.062-0.557
			l2.402-0.186c17.641-1.425,35.771-2.262,53.477-2.466l10.066-0.137v-0.011c5,0.013,11.018,0.133,16.591,0.262l8.782,0.268
			l8.826,0.409c8.977,0.413,18.04,0.991,26.99,1.719l8.568,0.694l8.729,0.909c14.695,1.527,29.541,3.505,44.131,5.879l11.561,1.885
			l-0.029-8.95l8.852,1.331V623.453z M1382.802,657.866l6.942-0.313l-0.011,3.318c-2.312,0.188-4.626,0.382-6.943,0.589
			L1382.802,657.866z M1562.394,663.48l-0.069-21.063c2.305,0.042,4.613,0.086,6.918,0.131l0.04,21.709
			C1566.987,663.99,1564.689,663.73,1562.394,663.48z"/>
		<g>
			<path fill="#FFFFFF" d="M1363.821,633.318c-11.952,0.216-23.901,0.473-35.846,0.769c0-2.989,0-5.978,0-8.968
				c20.925,0,41.849,0,62.773,0c-0.019,5.186-0.037,10.369-0.055,15.554c-2.99,0.079-5.979,0.162-8.969,0.252
				c-0.01,2.634-0.019,5.268-0.027,7.902c-2.989,0.133-5.978,0.273-8.965,0.421c-0.009,2.682-0.018,5.362-0.026,8.043
				c-2.987,0.197-5.975,0.405-8.959,0.621c-0.008,2.733-0.017,5.466-0.024,8.199c-2.984,0.271-5.968,0.555-8.949,0.851
				c-0.007,2.789-0.014,5.578-0.021,8.368c12.056-1.465,24.136-2.684,36.233-3.66c-0.01,2.616-0.019,5.232-0.027,7.849
				c-21.071,1.936-42.083,4.727-62.984,8.374c0-5.979,0-11.957,0-17.936c2.974-0.37,5.948-0.727,8.925-1.072
				c0.003-2.917,0.006-5.835,0.009-8.752c2.979-0.277,5.958-0.543,8.939-0.8c0.005-2.851,0.011-5.702,0.017-8.553
				c2.982-0.192,5.967-0.378,8.951-0.555c0.007-2.79,0.014-5.579,0.021-8.369c2.986-0.119,5.974-0.232,8.96-0.341
				C1363.805,638.783,1363.813,636.05,1363.821,633.318z"/>
			<path fill="#FFFFFF" d="M1453.502,654.362c-11.982,0.079-23.963,0.315-35.936,0.71c-0.015,4.992-0.029,9.984-0.043,14.977
				c11.981-0.592,23.975-0.947,35.969-1.065c-0.002,2.438-0.004,4.874-0.006,7.311c-18,0.207-35.996,1.035-53.954,2.485
				c0.062-17.886,0.123-35.773,0.185-53.66c17.934,0,35.869,0,53.804,0c-0.002,2.438-0.003,4.874-0.005,7.312
				c-11.962,0.02-23.925,0.078-35.886,0.178c-0.015,4.992-0.029,9.984-0.043,14.976c11.97-0.295,23.943-0.473,35.92-0.532
				C1453.505,649.489,1453.504,651.926,1453.502,654.362z"/>
			<path fill="#FFFFFF" d="M1480.472,661.784c0.006,4.888,0.012,9.776,0.019,14.665c-6-0.138-12-0.207-18.002-0.207
				c0-17.041,0-34.082,0-51.123c17.936,0,35.871,0,53.806,0c0.008,2.523,0.016,5.047,0.024,7.569
				c2.989,0.03,5.979,0.063,8.969,0.097c0.026,7.666,0.053,15.331,0.079,22.997c-5.983-0.275-11.968-0.512-17.955-0.71
				c0.008,2.496,0.016,4.992,0.021,7.488c2.995,0.123,5.988,0.259,8.981,0.407c0.008,2.523,0.018,5.046,0.025,7.569
				c3.129,0.16,6.256,0.336,9.383,0.528c0.01,2.582,0.019,5.165,0.027,7.747c-9.113-0.741-18.237-1.321-27.366-1.742
				c-0.006-2.474-0.011-4.947-0.018-7.421c-2.997-0.119-5.994-0.223-8.991-0.311c-0.005-2.457-0.01-4.914-0.014-7.37
				C1486.464,661.896,1483.468,661.833,1480.472,661.784z M1480.433,632.453c0.01,7.332,0.02,14.665,0.029,21.998
				c5.99,0.079,11.979,0.197,17.968,0.355c-0.005-2.475-0.012-4.948-0.018-7.422c2.994,0.059,5.986,0.126,8.979,0.199
				c-0.014-4.991-0.029-9.983-0.043-14.976C1498.377,632.534,1489.405,632.482,1480.433,632.453z"/>
			<path fill="#FFFFFF" d="M1588.095,686.391c-14.855-2.416-29.765-4.401-44.705-5.954c-0.009-2.635-0.019-5.269-0.027-7.903
				c-2.989-0.266-5.978-0.517-8.97-0.754c-0.045-12.961-0.091-25.922-0.137-38.883c2.989,0.039,5.979,0.081,8.967,0.125
				c-0.009-2.634-0.017-5.268-0.026-7.902c14.945,0,29.892,0,44.838,0c0.002,2.918,0.005,5.836,0.008,8.753
				c2.987,0.069,5.973,0.141,8.959,0.215c0,14.946,0,29.892,0,44.838c-2.97-0.444-5.942-0.872-8.915-1.287
				C1588.089,680.556,1588.092,683.473,1588.095,686.391z M1579.082,633.673c-8.962-0.192-17.926-0.362-26.892-0.51
				c0.044,13.404,0.088,26.81,0.133,40.214c8.958,0.888,17.904,1.908,26.836,3.063
				C1579.134,662.185,1579.107,647.929,1579.082,633.673z"/>
		</g>
	</g>
	<g display="inline">
		<g>
			<path fill="#282828" d="M3653,146.199l-12.718,0.045L3640.127,134h-90.872l0.039,10.522l-2.817-0.233l-6.919,0.219L3539.525,134
				h-87.949h-15.583h-72.373h-15.407H3247v40.184l14.627-0.355c3.578-0.089,7.353-0.174,10.945-0.259l0.027,8.87l-12.538,1.176
				l-0.253,12.6c-0.088,0.011-12.809,1.559-12.809,1.559v19.06l-37.971,11.702l37.928,23.377l16.714-2.862
				c28.767-5.02,58.295-8.919,87.369-11.588l8.554-0.78l3.398-0.259c24.729-1.999,50.611-3.171,75.432-3.457l14.576-0.192v-0.017
				c8,0.018,14.996,0.188,22.809,0.368l12.088,0.375l12.256,0.573c12.587,0.58,25.237,1.389,37.783,2.41l11.983,0.974l12.222,1.272
				c20.603,2.142,41.405,4.914,61.857,8.242l16.205,2.643l36.075-23.812l-23.278-11V146.199z M3347.988,198.654
				c-3.24,0.262-6.486,0.534-9.734,0.824l0.017-5.038l9.733-0.44L3347.988,198.654z M3590.035,202.311l-0.098-29.527
				c3.232,0.06,6.468,0.121,9.699,0.184l0.055,30.433C3596.475,203.026,3593.254,202.663,3590.035,202.311z"/>
			<polygon fill="#282828" points="3682.42,199.126 3669.273,204.063 3664.777,217.268 3676.284,225.805 3690.963,213.098 			"/>
		</g>
		<path fill="#631099" d="M3691,102.766l-14.873-0.572L3676.198,87h-108.11l0.046,13.147l-3.351,0.036l-8.231-0.208L3556.513,87
			H3451.88h-18.542h-86.101h-18.332H3209v49.061l17.148-0.422c4.255-0.106,8.618-0.208,12.894-0.308l-0.032,10.552l-14.947,1.399
			l-0.064,14.991c-0.104,0.013-14.998,1.854-14.998,1.854v64.41l19.604-3.404c34.223-5.973,69.215-10.611,103.804-13.786
			l10.109-0.929l4.007-0.309c29.422-2.376,59.909-3.772,89.438-4.113l17.038-0.228v-0.018c8,0.021,18.126,0.221,27.421,0.436
			l14.522,0.446l14.659,0.683c14.972,0.689,30.056,1.653,44.983,2.867l14.275,1.158l14.549,1.517
			c24.51,2.547,49.266,5.845,73.599,9.805l19.279,3.143l-0.05-14.927l14.762,2.22V102.766z M3317.078,160.161l11.578-0.523
			l-0.018,5.534c-3.855,0.313-7.716,0.637-11.58,0.982L3317.078,160.161z M3616.604,169.524l-0.115-35.128
			c3.844,0.07,7.694,0.144,11.538,0.218l0.066,36.207C3624.266,170.375,3620.434,169.941,3616.604,169.524z"/>
		<g>
			<path fill="#FFFFFF" d="M3285.422,119.22c-19.934,0.36-39.863,0.788-59.784,1.282c0-4.986,0-9.97,0-14.957
				c34.898,0,69.796,0,104.694,0c-0.03,8.648-0.062,17.293-0.091,25.94c-4.987,0.132-9.973,0.271-14.958,0.42
				c-0.017,4.393-0.031,8.785-0.046,13.18c-4.985,0.222-9.97,0.456-14.952,0.702c-0.014,4.472-0.029,8.943-0.044,13.414
				c-4.981,0.329-9.964,0.676-14.941,1.036c-0.013,4.559-0.028,9.116-0.041,13.675c-4.978,0.453-9.953,0.925-14.926,1.419
				c-0.011,4.651-0.022,9.303-0.034,13.957c20.107-2.443,40.254-4.476,60.431-6.104c-0.017,4.363-0.03,8.727-0.046,13.09
				c-35.143,3.229-70.187,7.883-105.046,13.967c0-9.971,0-19.942,0-29.914c4.96-0.617,9.921-1.212,14.885-1.788
				c0.005-4.865,0.01-9.732,0.015-14.597c4.969-0.463,9.938-0.906,14.909-1.334c0.009-4.754,0.019-9.51,0.028-14.265
				c4.974-0.321,9.951-0.63,14.929-0.925c0.011-4.653,0.022-9.305,0.034-13.958c4.98-0.199,9.963-0.388,14.943-0.568
				C3285.395,128.334,3285.408,123.775,3285.422,119.22z"/>
			<path fill="#FFFFFF" d="M3434.993,154.317c-19.984,0.132-39.966,0.526-59.935,1.184c-0.024,8.326-0.049,16.652-0.071,24.979
				c19.983-0.987,39.985-1.58,59.989-1.777c-0.003,4.065-0.006,8.129-0.01,12.192c-30.021,0.345-60.035,1.727-89.985,4.145
				c0.103-29.83,0.205-59.664,0.308-89.495c29.91,0,59.823,0,89.734,0c-0.003,4.065-0.004,8.129-0.008,12.194
				c-19.95,0.032-39.902,0.13-59.851,0.296c-0.024,8.326-0.049,16.652-0.071,24.977c19.963-0.492,39.933-0.789,59.907-0.888
				C3434.998,146.189,3434.996,150.253,3434.993,154.317z"/>
			<path fill="#FFFFFF" d="M3479.974,166.695c0.01,8.152,0.02,16.305,0.031,24.459c-10.007-0.23-20.015-0.346-30.024-0.346
				c0-28.421,0-56.843,0-85.264c29.913,0,59.826,0,89.738,0c0.013,4.208,0.026,8.417,0.041,12.624
				c4.985,0.051,9.971,0.104,14.958,0.161c0.044,12.786,0.088,25.57,0.132,38.355c-9.979-0.459-19.96-0.854-29.945-1.184
				c0.013,4.163,0.025,8.326,0.035,12.489c4.995,0.205,9.987,0.432,14.979,0.679c0.013,4.208,0.029,8.416,0.042,12.625
				c5.219,0.267,10.434,0.56,15.649,0.881c0.017,4.307,0.03,8.614,0.046,12.921c-15.199-1.236-30.417-2.204-45.643-2.906
				c-0.01-4.125-0.018-8.251-0.029-12.377c-4.998-0.199-9.997-0.371-14.996-0.518c-0.008-4.098-0.016-8.196-0.022-12.292
				C3489.968,166.881,3484.971,166.777,3479.974,166.695z M3479.908,117.776c0.017,12.229,0.033,24.459,0.049,36.689
				c9.991,0.132,19.98,0.329,29.967,0.593c-0.008-4.127-0.02-8.253-0.029-12.378c4.994,0.098,9.984,0.21,14.975,0.333
				c-0.022-8.325-0.049-16.651-0.071-24.977C3509.836,117.912,3494.873,117.825,3479.908,117.776z"/>
			<path fill="#FFFFFF" d="M3659.47,207.734c-24.776-4.029-49.643-7.34-74.561-9.93c-0.015-4.395-0.03-8.787-0.046-13.181
				c-4.984-0.443-9.969-0.862-14.959-1.258c-0.075-21.616-0.152-43.233-0.229-64.849c4.985,0.065,9.971,0.135,14.955,0.208
				c-0.015-4.393-0.027-8.786-0.044-13.18c24.927,0,49.854,0,74.781,0c0.004,4.866,0.009,9.733,0.014,14.598
				c4.981,0.116,9.961,0.234,14.941,0.358c0,24.928,0,49.854,0,74.781c-4.952-0.741-9.911-1.454-14.868-2.146
				C3659.46,198.003,3659.465,202.868,3659.47,207.734z M3644.438,119.811c-14.946-0.321-29.896-0.604-44.85-0.85
				c0.073,22.356,0.146,44.714,0.221,67.07c14.941,1.48,29.861,3.182,44.758,5.107
				C3644.524,167.363,3644.48,143.587,3644.438,119.811z"/>
		</g>
	</g>
	<g display="inline">
		<path fill="#FFFFFF" d="M3108.193,137.901L3108.139,123H2618v74.576l14.938-0.368l-0.005,1.152
			c-1.94,0.24-14.934,1.845-14.934,1.845v82.978l48.182,29.683l21.548-3.688c28.05-4.896,56.864-8.718,85.635-11.358l8.392-0.766
			l3.335-0.254c24.393-1.971,48.989-3.11,73.141-3.389l14.409-0.202c7.86,0.027,14.623,0.183,21.767,0.348l0.389,0.009l12.262,0.368
			l12.269,0.563c12.376,0.57,24.87,1.365,37.14,2.363l11.794,0.955l12.006,1.248c20.2,2.1,40.604,4.818,60.64,8.078l21.632,3.502
			l60.463-43.39V138.036L3108.193,137.901z"/>
		<g>
			<path fill="#282828" d="M3071.841,262.176v-68.082l-12.629-0.203l-0.164-12.399h-90.179l0.039,10.691l-2.795-0.107l-6.866,0.031
				l-0.033-10.615h-87.276h-15.465h-71.82h-15.291h-100.494v40.374l14.543-0.353c3.551-0.088,7.309-0.173,10.875-0.256l0.033,8.802
				l-12.438,1.167l-0.279,12.502c-0.086,0.012-12.734,1.546-12.734,1.546v18.915l-37.655,11.614l37.655,23.198l16.591-2.839
				c28.547-4.982,57.854-8.852,86.706-11.5l8.491-0.775l3.372-0.257c24.541-1.982,49.389-3.146,74.019-3.43l13.63-0.191v-0.016
				c8.588,0.019,15.718,0.187,23.472,0.365l12.412,0.372l12.375,0.569c12.49,0.575,25.146,1.379,37.598,2.392l11.945,0.967
				l12.153,1.263c20.444,2.125,41.104,4.876,61.399,8.179l16.087,2.622l34.023-24.476L3071.841,262.176z M2769.139,246.149
				c-3.215,0.261-6.435,0.53-9.659,0.818l0.017-4.999l9.659-0.436L2769.139,246.149z M3009.339,249.778l-0.098-29.302
				c3.208,0.06,6.419,0.12,9.626,0.183l0.055,30.2C3015.729,250.488,3012.532,250.127,3009.339,249.778z"/>
			<path fill="#282828" d="M3109.496,260.482V150.994l-14.741-0.287l0.091-14.796h-107.287l0.047,12.765l-3.325-0.106l-8.169,0.003
				l-0.039-12.663h-103.834h-18.399h-85.445h-18.191h-118.99v48.123l17.018-0.419c4.223-0.105,8.553-0.207,12.796-0.305
				l-0.032,10.472l-14.833,1.389l-0.064,14.875c-0.104,0.013-14.884,1.839-14.884,1.839v63.919l19.454-3.378
				c33.963-5.927,68.687-10.531,103.013-13.682l10.03-0.921l3.977-0.307c29.197-2.358,58.945-3.743,88.248-4.081l16.402-0.227
				v-0.019c9.248,0.022,18.496,0.222,27.72,0.434l14.665,0.443l14.672,0.677c14.857,0.684,29.891,1.642,44.705,2.846l14.197,1.15
				l14.453,1.503c24.322,2.528,48.898,5.801,73.046,9.729l16.719,2.727l2.407-1.731l-0.057-12.688L3109.496,260.482z
				 M2749.938,212.923c-3.825,0.311-7.656,0.632-11.492,0.974l0.02-5.947l11.491-0.52L2749.938,212.923z M3035.706,217.242
				l-0.116-34.861c3.816,0.07,7.637,0.143,11.451,0.218l0.065,35.93C3043.309,218.086,3039.505,217.656,3035.706,217.242z"/>
			<g>
				<path fill="#FFFFFF" d="M2707.051,167.32c-19.782,0.359-39.559,0.783-59.327,1.273c0-4.947,0-9.894,0-14.842
					c34.632,0,69.263,0,103.895,0c-0.03,8.581-0.061,17.161-0.091,25.741c-4.948,0.131-9.896,0.27-14.844,0.417
					c-0.016,4.36-0.031,8.719-0.046,13.08c-4.946,0.22-9.892,0.453-14.837,0.697c-0.015,4.437-0.029,8.875-0.045,13.312
					c-4.942,0.327-9.886,0.669-14.826,1.028c-0.014,4.523-0.027,9.046-0.041,13.569c-4.938,0.449-9.876,0.918-14.811,1.409
					c-0.012,4.616-0.023,9.233-0.035,13.85c19.953-2.423,39.947-4.442,59.97-6.058c-0.016,4.33-0.03,8.661-0.046,12.991
					c-34.873,3.202-69.65,7.821-104.243,13.858c0-9.894,0-19.789,0-29.684c4.921-0.612,9.845-1.204,14.771-1.774
					c0.004-4.83,0.01-9.659,0.015-14.487c4.93-0.458,9.862-0.898,14.796-1.322c0.009-4.719,0.018-9.438,0.025-14.156
					c4.938-0.318,9.877-0.625,14.816-0.918c0.012-4.618,0.022-9.234,0.034-13.852c4.942-0.196,9.886-0.384,14.83-0.563
					C2707.023,176.366,2707.037,171.843,2707.051,167.32z"/>
				<path fill="#FFFFFF" d="M2855.48,202.151c-19.832,0.13-39.66,0.523-59.478,1.176c-0.024,8.261-0.048,16.524-0.071,24.786
					c19.832-0.98,39.68-1.567,59.532-1.763c-0.003,4.034-0.006,8.067-0.009,12.1c-29.793,0.343-59.577,1.714-89.3,4.114
					c0.102-29.604,0.203-59.208,0.305-88.812c29.684,0,59.367,0,89.051,0c-0.003,4.033-0.005,8.066-0.008,12.1
					c-19.799,0.033-39.598,0.13-59.395,0.294c-0.023,8.263-0.048,16.525-0.071,24.787c19.812-0.489,39.63-0.783,59.45-0.881
					C2855.485,194.084,2855.482,198.118,2855.48,202.151z"/>
				<path fill="#FFFFFF" d="M2900.116,214.434c0.011,8.091,0.021,16.181,0.031,24.272c-9.93-0.228-19.861-0.342-29.794-0.342
					c0-28.205,0-56.408,0-84.613c29.684,0,59.369,0,89.053,0c0.013,4.176,0.025,8.352,0.04,12.528
					c4.948,0.049,9.896,0.102,14.845,0.159c0.044,12.688,0.088,25.375,0.131,38.063c-9.902-0.458-19.808-0.849-29.717-1.175
					c0.012,4.13,0.024,8.261,0.036,12.393c4.956,0.204,9.911,0.429,14.865,0.674c0.013,4.176,0.027,8.352,0.04,12.528
					c5.179,0.265,10.355,0.557,15.531,0.875c0.015,4.274,0.029,8.548,0.045,12.822c-15.085-1.226-30.185-2.186-45.293-2.882
					c-0.011-4.095-0.02-8.188-0.03-12.283c-4.96-0.196-9.921-0.368-14.882-0.514c-0.008-4.066-0.016-8.132-0.023-12.197
					C2910.036,214.618,2905.076,214.516,2900.116,214.434z M2900.053,165.888c0.016,12.137,0.033,24.273,0.048,36.411
					c9.915,0.13,19.829,0.326,29.739,0.587c-0.009-4.094-0.02-8.188-0.029-12.283c4.954,0.098,9.908,0.208,14.859,0.33
					c-0.022-8.262-0.047-16.524-0.07-24.787C2929.752,166.022,2914.902,165.937,2900.053,165.888z"/>
				<path fill="#FFFFFF" d="M3078.243,255.161c-24.587-3.999-49.263-7.285-73.991-9.855c-0.016-4.36-0.029-8.719-0.045-13.079
					c-4.947-0.441-9.895-0.857-14.845-1.249c-0.075-21.451-0.151-42.903-0.228-64.355c4.948,0.065,9.896,0.134,14.842,0.208
					c-0.015-4.36-0.029-8.719-0.045-13.079c24.737,0,49.474,0,74.211,0c0.004,4.829,0.009,9.658,0.014,14.486
					c4.943,0.115,9.885,0.233,14.828,0.355c0,24.737,0,49.474,0,74.21c-4.916-0.735-9.834-1.444-14.757-2.13
					C3078.232,245.502,3078.238,250.331,3078.243,255.161z M3063.326,167.908c-14.832-0.318-29.669-0.6-44.509-0.845
					c0.073,22.187,0.147,44.373,0.221,66.559c14.827,1.469,29.634,3.159,44.416,5.069
					C3063.412,215.096,3063.369,191.502,3063.326,167.908z"/>
			</g>
			<polyline fill="#282828" points="3059.117,296.723 3109.496,260.482 3106.44,252.22 3090.049,250.816 			"/>
		</g>
	</g>
	<g display="inline">
		<path fill="#FFFFFF" d="M2474.137,104.461L2474.277,90H2009v71.423l14.181-0.349l-0.004,1.094
			c-1.843,0.228-14.177,1.751-14.177,1.751v78.77l45.738,28.177l20.454-3.5c26.628-4.647,53.98-8.275,81.292-10.782l7.966-0.727
			l3.166-0.242c23.155-1.87,46.504-2.952,69.431-3.216l13.678-0.192c7.462,0.026,13.882,0.174,20.662,0.331l0.37,0.008l11.64,0.349
			l11.646,0.535c11.747,0.542,23.608,1.296,35.256,2.243l11.195,0.907l11.396,1.184c19.176,1.994,38.544,4.574,57.564,7.668
			l20.342,3.325L2488,227.567V104.903L2474.137,104.461z"/>
		<g>
			<path fill="#282828" d="M2439.821,222.748v-64.628l-11.988-0.193l-0.155-11.77h-85.605l0.037,10.149l-2.653-0.103l-6.518,0.03
				l-0.031-10.077h-82.851h-14.681h-68.177h-14.515h-95.397v38.326l13.805-0.335c3.371-0.084,6.938-0.165,10.324-0.243l0.032,8.355
				l-11.808,1.108l-0.265,11.869c-0.082,0.011-12.089,1.468-12.089,1.468v17.956l-35.745,11.024l35.745,22.021l15.749-2.695
				c27.1-4.729,54.92-8.403,82.309-10.917l8.061-0.736l3.201-0.244c23.296-1.881,46.884-2.986,70.265-3.255l12.938-0.182v-0.015
				c8.152,0.018,14.921,0.177,22.281,0.347l11.783,0.354l11.747,0.54c11.856,0.546,23.871,1.309,35.69,2.27l11.34,0.918
				l11.537,1.199c19.407,2.017,39.018,4.629,58.285,7.764l15.271,2.489l32.298-23.234L2439.821,222.748z M2152.473,207.533
				c-3.051,0.248-6.108,0.503-9.169,0.777l0.016-4.745l9.169-0.414L2152.473,207.533z M2380.489,210.979l-0.093-27.816
				c3.046,0.057,6.094,0.114,9.138,0.173l0.052,28.669C2386.556,211.652,2383.521,211.309,2380.489,210.979z"/>
			<path fill="#282828" d="M2475.566,221.139V117.204l-13.993-0.272l0.086-14.046h-101.845l0.044,12.118l-3.156-0.1l-7.755,0.003
				l-0.037-12.021h-98.567h-17.466h-81.112h-17.268h-112.955v45.683l16.154-0.398c4.009-0.099,8.119-0.196,12.146-0.29l-0.03,9.941
				l-14.081,1.319l-0.062,14.121c-0.097,0.012-14.128,1.746-14.128,1.746v60.677l18.467-3.207
				c32.24-5.627,65.203-9.997,97.788-12.988l9.521-0.875l3.775-0.291c27.716-2.238,55.955-3.553,83.771-3.874l15.57-0.216v-0.018
				c8.779,0.021,17.558,0.21,26.313,0.412l13.921,0.42l13.928,0.643c14.104,0.65,28.376,1.559,42.438,2.701l13.478,1.092
				l13.721,1.427c23.089,2.4,46.418,5.507,69.341,9.236l15.87,2.588l2.285-1.644l-0.054-12.044L2475.566,221.139z M2134.245,175.993
				c-3.631,0.295-7.268,0.6-10.909,0.924l0.019-5.646l10.908-0.493L2134.245,175.993z M2405.52,180.092l-0.11-33.093
				c3.623,0.067,7.249,0.135,10.87,0.207l0.063,34.107C2412.735,180.893,2409.126,180.485,2405.52,180.092z"/>
			<g>
				<path fill="#FFFFFF" d="M2093.534,132.703c-18.778,0.341-37.553,0.744-56.318,1.208c0-4.697,0-9.393,0-14.089
					c32.876,0,65.75,0,98.625,0c-0.028,8.146-0.058,16.291-0.086,24.436c-4.698,0.124-9.395,0.256-14.092,0.396
					c-0.014,4.139-0.028,8.277-0.043,12.417c-4.695,0.209-9.391,0.43-14.084,0.662c-0.015,4.212-0.028,8.424-0.043,12.636
					c-4.692,0.31-9.384,0.636-14.074,0.977c-0.013,4.294-0.025,8.587-0.038,12.88c-4.688,0.426-9.376,0.872-14.061,1.337
					c-0.011,4.382-0.022,8.765-0.032,13.147c18.94-2.3,37.921-4.217,56.928-5.75c-0.015,4.11-0.029,8.221-0.044,12.332
					c-33.104,3.039-66.118,7.425-98.956,13.156c0-9.393,0-18.786,0-28.178c4.672-0.581,9.346-1.143,14.021-1.685
					c0.004-4.584,0.009-9.168,0.014-13.752c4.681-0.434,9.362-0.853,14.046-1.255c0.008-4.479,0.017-8.959,0.024-13.438
					c4.687-0.302,9.375-0.593,14.063-0.872c0.012-4.384,0.022-8.766,0.033-13.149c4.692-0.186,9.385-0.364,14.078-0.535
					C2093.509,141.29,2093.521,136.996,2093.534,132.703z"/>
				<path fill="#FFFFFF" d="M2234.435,165.767c-18.825,0.124-37.648,0.496-56.46,1.116c-0.023,7.843-0.046,15.687-0.067,23.529
					c18.825-0.93,37.667-1.487,56.512-1.673c-0.003,3.829-0.005,7.657-0.008,11.485c-28.282,0.326-56.556,1.627-84.771,3.905
					c0.097-28.102,0.193-56.205,0.289-84.307c28.178,0,56.356,0,84.534,0c-0.002,3.829-0.005,7.657-0.007,11.485
					c-18.795,0.031-37.59,0.124-56.383,0.279c-0.022,7.844-0.045,15.687-0.066,23.53c18.806-0.464,37.618-0.743,56.434-0.836
					C2234.439,158.109,2234.438,161.938,2234.435,165.767z"/>
				<path fill="#FFFFFF" d="M2276.807,177.427c0.01,7.68,0.02,15.36,0.029,23.042c-9.426-0.217-18.854-0.325-28.281-0.325
					c0-26.774,0-53.547,0-80.321c28.178,0,56.357,0,84.535,0c0.012,3.964,0.024,7.928,0.038,11.892
					c4.697,0.046,9.395,0.097,14.091,0.151c0.042,12.044,0.084,24.088,0.125,36.132c-9.4-0.434-18.803-0.805-28.21-1.115
					c0.012,3.921,0.023,7.843,0.034,11.765c4.705,0.193,9.408,0.407,14.111,0.639c0.013,3.964,0.026,7.928,0.038,11.893
					c4.917,0.251,9.83,0.528,14.743,0.83c0.015,4.057,0.028,8.115,0.043,12.172c-14.319-1.164-28.653-2.076-42.996-2.736
					c-0.01-3.887-0.019-7.773-0.028-11.66c-4.708-0.187-9.417-0.349-14.127-0.488c-0.007-3.86-0.015-7.719-0.021-11.579
					C2286.224,177.601,2281.516,177.504,2276.807,177.427z M2276.747,131.343c0.015,11.521,0.03,23.042,0.045,34.563
					c9.412,0.124,18.823,0.31,28.231,0.557c-0.009-3.886-0.019-7.773-0.028-11.66c4.703,0.093,9.405,0.198,14.106,0.313
					c-0.022-7.843-0.046-15.686-0.067-23.53C2304.939,131.471,2290.844,131.389,2276.747,131.343z"/>
				<path fill="#FFFFFF" d="M2445.898,216.087c-23.34-3.796-46.763-6.915-70.238-9.355c-0.015-4.139-0.027-8.277-0.042-12.416
					c-4.696-0.418-9.393-0.813-14.092-1.186c-0.071-20.363-0.144-40.727-0.216-61.091c4.697,0.062,9.394,0.127,14.089,0.197
					c-0.015-4.139-0.028-8.277-0.043-12.415c23.482,0,46.965,0,70.447,0c0.003,4.583,0.008,9.168,0.013,13.751
					c4.692,0.109,9.384,0.221,14.076,0.337c0,23.482,0,46.964,0,70.446c-4.667-0.697-9.336-1.371-14.009-2.022
					C2445.889,206.919,2445.894,211.503,2445.898,216.087z M2431.738,133.26c-14.08-0.302-28.164-0.57-42.251-0.802
					c0.07,21.061,0.14,42.122,0.21,63.183c14.074,1.395,28.13,2.999,42.163,4.812
					C2431.819,178.055,2431.779,155.658,2431.738,133.26z"/>
			</g>
			<polyline fill="#282828" points="2427.743,255.542 2475.566,221.139 2472.666,213.295 2457.105,211.963 			"/>
		</g>
	</g>
	<g display="inline">
		<path fill="#FFFFFF" d="M2631,533.548V385h262.359l0.108,0.01l15.585-0.01h231.739l-0.11,15.492l15.318,0.054v124.136l-16-1.622
			v8.172l-33.736,20.263l-20.525-2.447c-18.156-2.141-36.521-4.002-54.76-5.532l-13.158-1.108l-12.684-0.914l-15.317-0.918
			c-9.093-0.533-18.342-0.998-27.489-1.382l-13.74-0.576l-13.784-0.347c-9.145-0.229-18.409-0.385-27.54-0.46l-13.508-0.113
			l-14.085,0.115c-27.478,0.23-55.272,1.159-82.611,2.764l-18.987,1.191l-8.604,0.653c-27.129,2.048-54.76,4.84-82.13,8.299
			l-20.808,2.615L2631,533.548z"/>
		<g>
			<g>
				<g>
					<path fill="#22282D" d="M3118,438.86l-14.148-0.086L3103.668,425h-84.966l0.149,12.351L3005,436.968v0.041l-12.996,0.043
						L2991.859,425h-84.367L2893,424.661V425h-110.691h-1.104H2670v42.917l13.692-0.293l0.058,12.854
						c-0.213,0.018-13.75,1.173-13.75,1.173v57.776l16.038-2.063c27.451-3.47,55.169-6.283,82.763-8.367l12.199-0.929v0.047
						l15.403-0.978c27.595-1.618,55.599-2.556,83.235-2.787l14.16-0.116l13.6,0.114c9.215,0.077,18.554,0.233,27.757,0.465
						l13.894,0.349l13.854,0.581c9.209,0.386,18.538,0.854,27.733,1.395l15.408,0.923l-0.025-12.403
						c3.27,0.206,12.764,0.803,12.868,0.81l0.025,12.52l13.283,1.114c18.39,1.544,36.996,3.421,55.306,5.578l16.176,1.912
						l0.225-13.942l14.098,1.465V438.86z M2766.708,487.452c-4.146,0.261-8.304,0.538-12.466,0.826l0.017-9.137l13.966-0.382
						l0.024-12.526l12.871-0.128l-0.042,20.441L2766.708,487.452z M2880.075,465.457l12.901,0.015l0.008,17.957l-12.923,0.1
						L2880.075,465.457z"/>
					<polyline fill="#22282D" points="2669.229,539.428 2644.461,525.637 2650.384,511.963 2698.171,515.867 2687.133,534.443 					
						"/>
				</g>
				<polyline fill="#22282D" points="3103.678,537.591 3127.238,523.593 3120.355,506.669 3089.395,517.438 3086.793,528.564 				
					"/>
			</g>
			<polyline fill="#22282D" points="3018.913,528.986 3006.044,528.061 2995.258,515.777 3002.437,510.123 3032.186,508.733 
				3033.128,519.905 			"/>
		</g>
		<rect x="3000" y="398" fill="#7A10B2" width="40" height="16"/>
		<g>
			<path fill="#282828" d="M2753.48,497.928c-31.074,2.346-62.105,5.476-93.063,9.387c0-10.36,0-20.72,0-31.08
				c5.166-0.434,10.334-0.854,15.502-1.26c0.003-5.075,0.007-10.15,0.01-15.226c5.172-0.305,10.345-0.598,15.52-0.88
				c0.006-4.978,0.011-9.954,0.016-14.933c5.176-0.188,10.354-0.369,15.53-0.543c0.007-4.887,0.015-9.773,0.021-14.66
				c-15.535,0.261-31.068,0.554-46.599,0.881c0-5.181,0-10.361,0-15.541c31.08,0,62.16,0,93.24,0
				c-0.01,4.658-0.02,9.316-0.029,13.976c-5.18,0.065-10.36,0.134-15.54,0.206c-0.009,4.729-0.019,9.456-0.028,14.183
				c-5.178,0.146-10.355,0.298-15.533,0.457c-0.01,4.803-0.019,9.606-0.026,14.41c-5.178,0.239-10.354,0.489-15.529,0.75
				c-0.007,4.887-0.015,9.773-0.022,14.66c-5.173,0.347-10.346,0.709-15.517,1.086c-0.006,4.978-0.011,9.955-0.017,14.933
				c20.677-1.884,41.377-3.477,62.095-4.78C2753.501,488.611,2753.491,493.27,2753.48,497.928z"/>
			<path fill="#282828" d="M2877.949,492.713c-31.141,0.261-62.277,1.304-93.378,3.129c0.055-27.256,0.111-54.513,0.168-81.769
				c31.08,0,62.161,0,93.241,0c-0.002,4.369-0.004,8.738-0.005,13.106c-20.728,0.029-41.454,0.116-62.179,0.262
				c-0.008,4.455-0.016,8.911-0.023,13.367c15.547-0.218,31.098-0.369,46.646-0.456c-0.003,4.379-0.006,8.76-0.009,13.14
				c-15.556,0.13-31.109,0.357-46.66,0.685c-0.016,8.911-0.03,17.822-0.046,26.734c20.743-0.724,41.496-1.158,62.249-1.303
				C2877.953,483.977,2877.951,488.345,2877.949,492.713z"/>
			<path fill="#282828" d="M3002.471,495.842c-10.367-0.608-20.738-1.129-31.112-1.564c-0.008-4.455-0.016-8.91-0.022-13.366
				c-5.186-0.181-10.371-0.344-15.559-0.488c-0.006-4.424-0.012-8.848-0.019-13.271c-5.186-0.115-10.371-0.217-15.558-0.305
				c0.01,8.796,0.02,17.592,0.029,26.387c-10.378-0.261-20.758-0.434-31.139-0.521c-0.011-26.213-0.021-52.427-0.031-78.64
				c25.901,0,51.801,0,77.701,0c0.009,4.496,0.018,8.991,0.025,13.486c5.182,0.044,10.363,0.091,15.543,0.143
				c0.02,9.085,0.038,18.17,0.057,27.256c-5.182-0.151-10.364-0.293-15.547-0.423c0.018,8.991,0.034,17.982,0.052,26.974
				c5.185,0.217,10.368,0.453,15.551,0.706C3002.453,486.758,3002.461,491.3,3002.471,495.842z M2971.29,454.177
				c-0.016-8.912-0.03-17.823-0.046-26.735c-10.361-0.073-20.725-0.131-31.088-0.175c0.011,8.796,0.021,17.592,0.03,26.389
				C2950.555,453.785,2960.924,453.958,2971.29,454.177z"/>
			<path fill="#282828" d="M3126.624,491.774c-5.163-0.542-10.328-1.068-15.494-1.575c0.003,5.075,0.007,10.15,0.009,15.225
				c-20.653-2.434-41.338-4.52-62.044-6.258c-0.01-4.727-0.02-9.454-0.028-14.181c-5.178-0.362-10.355-0.706-15.535-1.032
				c-0.039-18.635-0.078-37.27-0.119-55.904c5.181,0.065,10.36,0.134,15.54,0.206c-0.01-4.727-0.019-9.454-0.028-14.182
				c20.72,0,41.44,0,62.16,0c0.003,5.075,0.006,10.15,0.008,15.226c5.179,0.101,10.355,0.206,15.532,0.315
				C3126.624,450.334,3126.624,471.054,3126.624,491.774z M3095.627,488.733c-0.021-19.91-0.043-39.818-0.065-59.729
				c-10.356-0.188-20.714-0.362-31.071-0.521c0.034,19.214,0.069,38.428,0.104,57.643
				C3074.943,486.923,3085.289,487.792,3095.627,488.733z"/>
		</g>
		<path fill="#7A10B2" d="M3142,413.795l-15.153-0.285l0.381-15.51h-94.49l-0.084,13.926L3017,411.69v0.047l-14.201-0.144
			l0.086-13.594h-93.824l-16.265,0.013l-0.112-0.013h-122.839h-1.226H2644v48.108l15.701-0.325l-0.173,14.295
			c-0.237,0.02-15.528,1.305-15.528,1.305v64.254l18.311-2.297c30.529-3.857,61.394-6.987,92.081-9.304l13.608-1.033v0.052
			l17.326-1.086c30.688-1.801,61.927-2.843,92.663-3.1l15.794-0.129l15.149,0.126c10.248,0.086,20.646,0.26,30.88,0.518
			l15.459,0.388l15.408,0.646c10.241,0.429,20.619,0.95,30.844,1.55l17.136,1.027l-0.028-13.794
			c3.637,0.229,14.194,0.894,14.313,0.901l0.027,13.921l14.772,1.24c20.45,1.718,41.144,3.804,61.506,6.203l17.989,2.127
			l-0.333-15.505l15.095,1.629V413.795z M2752.496,467.834c-4.611,0.29-9.232,0.599-13.863,0.918l0.019-10.161l15.531-0.424
			l0.028-13.93l14.313-0.144l-0.047,22.734L2752.496,467.834z M2878.572,443.373l14.347,0.018l0.009,19.97l-14.372,0.11
			L2878.572,443.373z"/>
		<g>
			<path fill="#FFFFFF" d="M2753.48,497.928c-31.074,2.346-62.105,5.476-93.063,9.387c0-10.36,0-20.72,0-31.08
				c5.166-0.434,10.334-0.854,15.502-1.26c0.003-5.075,0.007-10.15,0.01-15.226c5.172-0.305,10.345-0.598,15.52-0.88
				c0.006-4.978,0.011-9.954,0.016-14.933c5.176-0.188,10.354-0.369,15.53-0.543c0.007-4.887,0.015-9.773,0.021-14.66
				c-15.535,0.261-31.068,0.554-46.599,0.881c0-5.181,0-10.361,0-15.541c31.08,0,62.16,0,93.24,0
				c-0.01,4.658-0.02,9.316-0.029,13.976c-5.18,0.065-10.36,0.134-15.54,0.206c-0.009,4.729-0.019,9.456-0.028,14.183
				c-5.178,0.146-10.355,0.298-15.533,0.457c-0.01,4.803-0.019,9.606-0.026,14.41c-5.178,0.239-10.354,0.489-15.529,0.75
				c-0.007,4.887-0.015,9.773-0.022,14.66c-5.173,0.347-10.346,0.709-15.517,1.086c-0.006,4.978-0.011,9.955-0.017,14.933
				c20.677-1.884,41.377-3.477,62.095-4.78C2753.501,488.611,2753.491,493.27,2753.48,497.928z"/>
			<path fill="#FFFFFF" d="M2877.949,492.713c-31.141,0.261-62.277,1.304-93.378,3.129c0.055-27.256,0.111-54.513,0.168-81.769
				c31.08,0,62.161,0,93.241,0c-0.002,4.369-0.004,8.738-0.005,13.106c-20.728,0.029-41.454,0.116-62.179,0.262
				c-0.008,4.455-0.016,8.911-0.023,13.367c15.547-0.218,31.098-0.369,46.646-0.456c-0.003,4.379-0.006,8.76-0.009,13.14
				c-15.556,0.13-31.109,0.357-46.66,0.685c-0.016,8.911-0.03,17.822-0.046,26.734c20.743-0.724,41.496-1.158,62.249-1.303
				C2877.953,483.977,2877.951,488.345,2877.949,492.713z"/>
			<path fill="#FFFFFF" d="M3002.471,495.842c-10.367-0.608-20.738-1.129-31.112-1.564c-0.008-4.455-0.016-8.91-0.022-13.366
				c-5.186-0.181-10.371-0.344-15.559-0.488c-0.006-4.424-0.012-8.848-0.019-13.271c-5.186-0.115-10.371-0.217-15.558-0.305
				c0.01,8.796,0.02,17.592,0.029,26.387c-10.378-0.261-20.758-0.434-31.139-0.521c-0.011-26.213-0.021-52.427-0.031-78.64
				c25.901,0,51.801,0,77.701,0c0.009,4.496,0.018,8.991,0.025,13.486c5.182,0.044,10.363,0.091,15.543,0.143
				c0.02,9.085,0.038,18.17,0.057,27.256c-5.182-0.151-10.364-0.293-15.547-0.423c0.018,8.991,0.034,17.982,0.052,26.974
				c5.185,0.217,10.368,0.453,15.551,0.706C3002.453,486.758,3002.461,491.3,3002.471,495.842z M2971.29,454.177
				c-0.016-8.912-0.03-17.823-0.046-26.735c-10.361-0.073-20.725-0.131-31.088-0.175c0.011,8.796,0.021,17.592,0.03,26.389
				C2950.555,453.785,2960.924,453.958,2971.29,454.177z"/>
			<path fill="#FFFFFF" d="M3126.624,491.774c-5.163-0.542-10.328-1.068-15.494-1.575c0.003,5.075,0.007,10.15,0.009,15.225
				c-20.653-2.434-41.338-4.52-62.044-6.258c-0.01-4.727-0.02-9.454-0.028-14.181c-5.178-0.362-10.355-0.706-15.535-1.032
				c-0.039-18.635-0.078-37.27-0.119-55.904c5.181,0.065,10.36,0.134,15.54,0.206c-0.01-4.727-0.019-9.454-0.028-14.182
				c20.72,0,41.44,0,62.16,0c0.003,5.075,0.006,10.15,0.008,15.226c5.179,0.101,10.355,0.206,15.532,0.315
				C3126.624,450.334,3126.624,471.054,3126.624,491.774z M3095.627,488.733c-0.021-19.91-0.043-39.818-0.065-59.729
				c-10.356-0.188-20.714-0.362-31.071-0.521c0.034,19.214,0.069,38.428,0.104,57.643
				C3074.943,486.923,3085.289,487.792,3095.627,488.733z"/>
		</g>
	</g>
	<g display="inline">
		<path fill="#FFFFFF" d="M1304,592.443V503h157.66l0.065,0.006l9.365-0.006h139.26l-0.312,9.398l8.961,0.12v74.598l-9-0.976v4.911
			l-20.336,12.177l-12.366-1.471c-10.911-1.286-21.963-2.405-32.923-3.324l-7.914-0.666l-7.626-0.55l-9.207-0.552
			c-5.464-0.32-11.023-0.6-16.521-0.83l-8.258-0.347l-8.283-0.208c-5.495-0.138-11.063-0.231-16.55-0.276l-8.117-0.068l-8.464,0.069
			c-16.512,0.139-33.215,0.697-49.644,1.661l-11.41,0.716l-5.171,0.393c-16.302,1.23-32.906,2.908-49.354,4.987l-12.504,1.571
			L1304,592.443z"/>
		<g>
			<g>
				<g>
					<path fill="#22282D" d="M1597,535.543l-8.676-0.158l-0.283-8.385h-51.059l0.216,7.529l-8.198-0.123v0.024l-7.936-0.081
						l-0.213-7.35h-50.698l-9.153,0.011V527h-66.074h-0.663H1327v26.004l8.445-0.176l-0.073,7.725
						c-0.128,0.011-8.372,0.705-8.372,0.705v34.72l9.855-1.24c16.496-2.085,33.192-3.775,49.774-5.028l7.37-0.558v0.028l9.326-0.588
						c16.582-0.973,33.445-1.536,50.054-1.675l8.526-0.07l8.182,0.069c5.537,0.046,11.154,0.14,16.684,0.279l8.353,0.209l8.326,0.35
						c5.534,0.231,11.142,0.514,16.667,0.838l9.26,0.555l-0.016-7.454c1.965,0.124,7.67,0.482,7.732,0.487l0.016,7.523l7.982,0.669
						c11.051,0.928,22.232,2.056,33.234,3.353l9.721,1.148l0.308-8.378l8.646,0.88V535.543z M1385.551,564.743
						c-2.49,0.157-4.989,0.323-7.49,0.497l0.01-5.491l8.393-0.229l0.015-7.527l7.734-0.076l-0.025,12.283L1385.551,564.743z
						 M1453.678,551.526l7.752,0.009l0.005,10.791l-7.766,0.06L1453.678,551.526z"/>
					<polyline fill="#22282D" points="1326.974,595.978 1312.089,587.689 1315.648,579.473 1344.365,581.819 1337.732,592.982 					
						"/>
				</g>
				<polyline fill="#22282D" points="1588.047,594.873 1602.205,586.462 1598.069,576.291 1579.464,582.763 1577.9,589.449 				"/>
			</g>
			<polyline fill="#22282D" points="1537.109,589.703 1529.376,589.146 1522.895,581.765 1527.208,578.367 1545.085,577.532 
				1545.651,584.246 			"/>
		</g>
		<rect x="1526" y="511" fill="#7A10B2" width="24" height="10"/>
		<g>
			<path fill="#282828" d="M1377.603,571.039c-18.674,1.409-37.321,3.29-55.925,5.641c0-6.227,0-12.451,0-18.678
				c3.104-0.26,6.211-0.513,9.316-0.757c0.002-3.05,0.004-6.1,0.006-9.149c3.107-0.183,6.216-0.359,9.326-0.528
				c0.003-2.991,0.006-5.982,0.009-8.974c3.11-0.113,6.222-0.222,9.333-0.326c0.004-2.937,0.009-5.873,0.013-8.811
				c-9.335,0.157-18.67,0.333-28.003,0.53c0-3.113,0-6.227,0-9.34c18.678,0,37.354,0,56.031,0c-0.006,2.8-0.012,5.599-0.018,8.398
				c-3.112,0.04-6.226,0.081-9.338,0.124c-0.006,2.842-0.012,5.683-0.018,8.522c-3.111,0.088-6.223,0.18-9.334,0.275
				c-0.006,2.886-0.012,5.772-0.016,8.659c-3.112,0.144-6.223,0.294-9.332,0.451c-0.005,2.937-0.01,5.873-0.014,8.81
				c-3.109,0.208-6.218,0.426-9.324,0.652c-0.004,2.991-0.007,5.982-0.011,8.974c12.426-1.132,24.865-2.09,37.315-2.873
				C1377.615,565.44,1377.609,568.239,1377.603,571.039z"/>
			<path fill="#282828" d="M1452.399,567.905c-18.713,0.156-37.424,0.783-56.113,1.88c0.032-16.379,0.066-32.759,0.101-49.138
				c18.677,0,37.354,0,56.031,0c-0.001,2.626-0.002,5.251-0.002,7.876c-12.456,0.018-24.912,0.07-37.365,0.158
				c-0.005,2.677-0.01,5.354-0.015,8.032c9.343-0.131,18.688-0.222,28.031-0.274c-0.002,2.632-0.003,5.265-0.005,7.896
				c-9.348,0.078-18.695,0.215-28.04,0.411c-0.009,5.355-0.018,10.71-0.027,16.065c12.466-0.435,24.937-0.695,37.407-0.782
				C1452.402,562.655,1452.4,565.28,1452.399,567.905z"/>
			<path fill="#282828" d="M1527.229,569.785c-6.23-0.365-12.462-0.679-18.696-0.94c-0.005-2.677-0.01-5.354-0.014-8.032
				c-3.116-0.108-6.232-0.206-9.35-0.293c-0.003-2.658-0.007-5.317-0.011-7.975c-3.116-0.069-6.232-0.131-9.35-0.184
				c0.006,5.286,0.012,10.572,0.018,15.856c-6.236-0.156-12.474-0.26-18.712-0.313c-0.007-15.753-0.013-31.505-0.019-47.258
				c15.564,0,31.129,0,46.693,0c0.005,2.702,0.01,5.403,0.015,8.104c3.114,0.026,6.228,0.055,9.341,0.086
				c0.012,5.459,0.022,10.919,0.033,16.379c-3.113-0.091-6.228-0.176-9.342-0.254c0.01,5.402,0.02,10.806,0.03,16.209
				c3.116,0.131,6.231,0.272,9.346,0.425C1527.218,564.326,1527.223,567.056,1527.229,569.785z M1508.491,544.747
				c-0.01-5.355-0.019-10.71-0.027-16.065c-6.227-0.045-12.454-0.079-18.682-0.105c0.006,5.285,0.013,10.571,0.018,15.857
				C1496.03,544.512,1502.262,544.616,1508.491,544.747z"/>
			<path fill="#282828" d="M1601.836,567.341c-3.103-0.325-6.206-0.642-9.311-0.946c0.002,3.05,0.004,6.1,0.005,9.148
				c-12.411-1.462-24.841-2.716-37.284-3.76c-0.006-2.841-0.012-5.682-0.017-8.522c-3.111-0.218-6.223-0.424-9.336-0.62
				c-0.023-11.198-0.047-22.396-0.071-33.595c3.113,0.04,6.226,0.081,9.339,0.124c-0.006-2.84-0.012-5.682-0.018-8.522
				c12.451,0,24.903,0,37.354,0c0.002,3.05,0.003,6.1,0.004,9.149c3.112,0.061,6.224,0.124,9.334,0.19
				C1601.836,542.438,1601.836,554.889,1601.836,567.341z M1583.209,565.514c-0.013-11.965-0.025-23.929-0.039-35.893
				c-6.224-0.113-12.447-0.218-18.672-0.313c0.021,11.546,0.042,23.092,0.063,34.639
				C1570.779,564.426,1576.997,564.947,1583.209,565.514z"/>
		</g>
		<path fill="#7A10B2" d="M1611,520.48l-9.068-0.166l0.268-9.314h-56.782l-0.03,8.363l-9.387-0.147v0.028l-8.555-0.08l0.032-8.164
			h-56.382l-9.774,0.007l-0.067-0.007h-73.817h-0.737H1312v28.898l9.341-0.195l-0.057,8.591c-0.143,0.012-9.284,0.784-9.284,0.784
			v38.611l10.909-1.38c18.346-2.318,36.683-4.199,55.124-5.591l7.967-0.621v0.031l10.575-0.652
			c18.441-1.082,37.296-1.709,55.767-1.863l9.532-0.077l9.124,0.076c6.158,0.051,12.416,0.155,18.566,0.311l9.296,0.233l9.261,0.388
			c6.154,0.258,12.393,0.571,18.537,0.932l10.298,0.617l-0.017-8.289c2.186,0.138,8.53,0.536,8.602,0.541l0.016,8.366l8.878,0.745
			c12.289,1.032,24.724,2.285,36.96,3.728l10.811,1.278l-0.238-9.317l9.033,0.979V520.48z M1377.011,552.954
			c-2.771,0.175-5.548,0.36-8.331,0.552l0.012-6.106l9.333-0.254l0.017-8.371l8.602-0.086l-0.028,13.661L1377.011,552.954z
			 M1452.774,538.255l8.621,0.011l0.005,12l-8.637,0.066L1452.774,538.255z"/>
		<g>
			<path fill="#FFFFFF" d="M1377.603,571.039c-18.674,1.409-37.321,3.29-55.925,5.641c0-6.227,0-12.451,0-18.678
				c3.104-0.26,6.211-0.513,9.316-0.757c0.002-3.05,0.004-6.1,0.006-9.149c3.107-0.183,6.216-0.359,9.326-0.528
				c0.003-2.991,0.006-5.982,0.009-8.974c3.11-0.113,6.222-0.222,9.333-0.326c0.004-2.937,0.009-5.873,0.013-8.811
				c-9.335,0.157-18.67,0.333-28.003,0.53c0-3.113,0-6.227,0-9.34c18.678,0,37.354,0,56.031,0c-0.006,2.8-0.012,5.599-0.018,8.398
				c-3.112,0.04-6.226,0.081-9.338,0.124c-0.006,2.842-0.012,5.683-0.018,8.522c-3.111,0.088-6.223,0.18-9.334,0.275
				c-0.006,2.886-0.012,5.772-0.016,8.659c-3.112,0.144-6.223,0.294-9.332,0.451c-0.005,2.937-0.01,5.873-0.014,8.81
				c-3.109,0.208-6.218,0.426-9.324,0.652c-0.004,2.991-0.007,5.982-0.011,8.974c12.426-1.132,24.865-2.09,37.315-2.873
				C1377.615,565.44,1377.609,568.239,1377.603,571.039z"/>
			<path fill="#FFFFFF" d="M1452.399,567.905c-18.713,0.156-37.424,0.783-56.113,1.88c0.032-16.379,0.066-32.759,0.101-49.138
				c18.677,0,37.354,0,56.031,0c-0.001,2.626-0.002,5.251-0.002,7.876c-12.456,0.018-24.912,0.07-37.365,0.158
				c-0.005,2.677-0.01,5.354-0.015,8.032c9.343-0.131,18.688-0.222,28.031-0.274c-0.002,2.632-0.003,5.265-0.005,7.896
				c-9.348,0.078-18.695,0.215-28.04,0.411c-0.009,5.355-0.018,10.71-0.027,16.065c12.466-0.435,24.937-0.695,37.407-0.782
				C1452.402,562.655,1452.4,565.28,1452.399,567.905z"/>
			<path fill="#FFFFFF" d="M1527.229,569.785c-6.23-0.365-12.462-0.679-18.696-0.94c-0.005-2.677-0.01-5.354-0.014-8.032
				c-3.116-0.108-6.232-0.206-9.35-0.293c-0.003-2.658-0.007-5.317-0.011-7.975c-3.116-0.069-6.232-0.131-9.35-0.184
				c0.006,5.286,0.012,10.572,0.018,15.856c-6.236-0.156-12.474-0.26-18.712-0.313c-0.007-15.753-0.013-31.505-0.019-47.258
				c15.564,0,31.129,0,46.693,0c0.005,2.702,0.01,5.403,0.015,8.104c3.114,0.026,6.228,0.055,9.341,0.086
				c0.012,5.459,0.022,10.919,0.033,16.379c-3.113-0.091-6.228-0.176-9.342-0.254c0.01,5.402,0.02,10.806,0.03,16.209
				c3.116,0.131,6.231,0.272,9.346,0.425C1527.218,564.326,1527.223,567.056,1527.229,569.785z M1508.491,544.747
				c-0.01-5.355-0.019-10.71-0.027-16.065c-6.227-0.045-12.454-0.079-18.682-0.105c0.006,5.285,0.013,10.571,0.018,15.857
				C1496.03,544.512,1502.262,544.616,1508.491,544.747z"/>
			<path fill="#FFFFFF" d="M1601.836,567.341c-3.103-0.325-6.206-0.642-9.311-0.946c0.002,3.05,0.004,6.1,0.005,9.148
				c-12.411-1.462-24.841-2.716-37.284-3.76c-0.006-2.841-0.012-5.682-0.017-8.522c-3.111-0.218-6.223-0.424-9.336-0.62
				c-0.023-11.198-0.047-22.396-0.071-33.595c3.113,0.04,6.226,0.081,9.339,0.124c-0.006-2.84-0.012-5.682-0.018-8.522
				c12.451,0,24.903,0,37.354,0c0.002,3.05,0.003,6.1,0.004,9.149c3.112,0.061,6.224,0.124,9.334,0.19
				C1601.836,542.438,1601.836,554.889,1601.836,567.341z M1583.209,565.514c-0.013-11.965-0.025-23.929-0.039-35.893
				c-6.224-0.113-12.447-0.218-18.672-0.313c0.021,11.546,0.042,23.092,0.063,34.639
				C1570.779,564.426,1576.997,564.947,1583.209,565.514z"/>
		</g>
	</g>
</g>
<g id="Capa_3">
	<g>
		<path fill="#FFFFFF" d="M1231.351,209.615L1231.215,173H18v184.054l36.977-0.911l-0.012,2.852
			C50.162,359.59,18,363.563,18,363.563v205.392l119.262,73.472l53.336-9.127c69.43-12.118,140.753-21.579,211.967-28.116
			l20.772-1.894l8.255-0.628c60.377-4.879,121.26-7.697,181.041-8.389l35.666-0.501c19.458,0.067,36.196,0.453,53.878,0.863
			l0.963,0.021l30.351,0.912l30.367,1.392c30.635,1.412,61.561,3.38,91.93,5.851l29.193,2.363l29.718,3.087
			c50.001,5.2,100.503,11.924,150.099,19.994l53.544,8.669L1268,529.525V209.678L1231.351,209.615z"/>
		<g>
			<path fill="#282828" d="M1141.368,516.957V348.438l-31.261-0.502l-0.405-30.69H886.487l0.098,26.462l-6.918-0.266l-16.996,0.078
				l-0.083-26.274h-216.03h-38.279H430.506h-37.849H143.909v99.935l35.998-0.874c8.79-0.219,18.09-0.429,26.918-0.634l0.082,21.788
				l-30.786,2.89l-0.691,30.947c-0.212,0.028-31.521,3.827-31.521,3.827v46.818L50.703,550.69l93.206,57.419l41.066-7.026
				c70.661-12.333,143.202-21.91,214.619-28.466l21.018-1.917l8.347-0.638c60.746-4.906,122.25-7.786,183.214-8.489l33.738-0.474
				v-0.038c21.257,0.048,38.905,0.461,58.099,0.903l30.723,0.921l30.632,1.409c30.916,1.424,62.243,3.413,93.063,5.92l29.568,2.393
				l30.082,3.126c50.605,5.26,101.741,12.071,151.979,20.247l39.818,6.488l84.217-60.582L1141.368,516.957z M392.105,477.285
				c-7.958,0.646-15.927,1.313-23.909,2.024l0.042-12.372l23.909-1.08L392.105,477.285z M986.661,486.27l-0.243-72.529
				c7.941,0.147,15.889,0.298,23.827,0.451l0.136,74.753C1002.477,488.025,994.565,487.132,986.661,486.27z"/>
			<path fill="#282828" d="M1234.574,512.764V241.753l-36.488-0.71l0.225-36.625H932.75l0.115,31.597l-8.231-0.262l-20.22,0.009
				l-0.098-31.343H647.303H601.76H390.261h-45.028H50.703v119.117l42.123-1.037c10.452-0.26,21.17-0.512,31.672-0.756l-0.08,25.921
				l-36.715,3.439l-0.16,36.819c-0.256,0.032-36.841,4.552-36.841,4.552V550.69l48.154-8.363
				c84.066-14.67,170.016-26.066,254.982-33.865l24.827-2.28l9.843-0.758c72.271-5.837,145.903-9.267,218.435-10.102l40.6-0.562
				v-0.046c22.892,0.055,45.783,0.549,68.613,1.074l36.3,1.097l36.316,1.675c36.776,1.693,73.986,4.063,110.656,7.044l35.142,2.847
				l35.774,3.721c60.204,6.259,121.036,14.361,180.809,24.082l41.382,6.75l5.958-4.285l-0.139-31.407L1234.574,512.764z
				 M344.578,395.044c-9.468,0.77-18.951,1.563-28.446,2.409l0.048-14.719l28.444-1.286L344.578,395.044z M1051.926,405.733
				l-0.288-86.29c9.446,0.174,18.903,0.353,28.346,0.539l0.161,88.936C1070.744,407.823,1061.329,406.759,1051.926,405.733z"/>
			<g>
				<path fill="#FFFFFF" d="M238.423,282.165c-48.966,0.888-97.917,1.938-146.85,3.151c0-12.246,0-24.49,0-36.737
					c85.723,0,171.442,0,257.165,0c-0.075,21.24-0.15,42.478-0.225,63.716c-12.248,0.323-24.496,0.668-36.742,1.032
					c-0.038,10.792-0.078,21.582-0.113,32.376c-12.244,0.544-24.484,1.121-36.725,1.726c-0.037,10.983-0.073,21.967-0.111,32.95
					c-12.233,0.809-24.469,1.657-36.699,2.545c-0.033,11.196-0.067,22.392-0.101,33.587c-12.224,1.11-24.446,2.271-36.66,3.486
					c-0.03,11.427-0.058,22.854-0.087,34.28c49.388-5.997,98.879-10.994,148.439-14.995c-0.039,10.719-0.075,21.439-0.113,32.157
					c-86.319,7.925-172.402,19.359-258.028,34.303c0-24.49,0-48.982,0-73.474c12.18-1.517,24.368-2.979,36.561-4.393
					c0.009-11.954,0.024-23.907,0.036-35.859c12.202-1.133,24.412-2.223,36.624-3.273c0.022-11.68,0.044-23.361,0.063-35.04
					c12.222-0.787,24.448-1.546,36.674-2.272c0.029-11.431,0.055-22.858,0.085-34.287c12.233-0.485,24.469-0.95,36.708-1.395
					C238.355,304.555,238.388,293.36,238.423,282.165z"/>
				<path fill="#FFFFFF" d="M605.823,368.379c-49.09,0.323-98.169,1.294-147.222,2.911c-0.061,20.448-0.118,40.9-0.177,61.351
					c49.089-2.426,98.217-3.878,147.357-4.363c-0.007,9.983-0.014,19.968-0.022,29.949c-73.745,0.85-147.467,4.244-221.039,10.184
					c0.251-73.276,0.503-146.556,0.753-219.831c73.475,0,146.949,0,220.423,0c-0.007,9.983-0.012,19.965-0.019,29.949
					c-49.007,0.081-98.014,0.323-147.017,0.728c-0.058,20.452-0.118,40.903-0.176,61.354c49.038-1.209,98.093-1.939,147.154-2.181
					C605.835,348.413,605.828,358.396,605.823,368.379z"/>
				<path fill="#FFFFFF" d="M716.307,398.783c0.027,20.026,0.052,40.053,0.078,60.081c-24.578-0.565-49.161-0.848-73.747-0.848
					c0-69.813,0-139.624,0-209.438c73.474,0,146.954,0,220.428,0c0.03,10.336,0.062,20.673,0.099,31.009
					c12.248,0.121,24.496,0.252,36.744,0.394c0.109,31.406,0.217,62.81,0.324,94.215c-24.512-1.132-49.028-2.1-73.557-2.907
					c0.028,10.224,0.061,20.448,0.09,30.675c12.267,0.505,24.531,1.061,36.795,1.667c0.031,10.336,0.067,20.672,0.099,31.01
					c12.819,0.656,25.632,1.378,38.444,2.165c0.035,10.578,0.072,21.157,0.11,31.737c-37.339-3.034-74.714-5.411-112.11-7.136
					c-0.027-10.135-0.049-20.268-0.076-30.403c-12.276-0.485-24.557-0.91-36.835-1.272c-0.02-10.065-0.038-20.128-0.058-30.191
					C740.861,399.238,728.585,398.985,716.307,398.783z M716.15,278.619c0.039,30.041,0.082,60.082,0.118,90.125
					c24.543,0.322,49.083,0.807,73.612,1.453c-0.022-10.134-0.048-20.269-0.072-30.404c12.263,0.243,24.524,0.516,36.781,0.817
					c-0.057-20.451-0.117-40.902-0.175-61.354C789.663,278.953,752.907,278.74,716.15,278.619z"/>
				<path fill="#FFFFFF" d="M1157.217,499.592c-60.859-9.899-121.939-18.031-183.148-24.396
					c-0.038-10.791-0.071-21.581-0.109-32.372c-12.247-1.092-24.493-2.122-36.745-3.093c-0.187-53.097-0.375-106.196-0.563-159.293
					c12.248,0.161,24.493,0.332,36.736,0.514c-0.036-10.792-0.071-21.581-0.11-32.373c61.23,0,122.459,0,183.69,0
					c0.01,11.952,0.021,23.906,0.033,35.857c12.237,0.284,24.468,0.576,36.704,0.88c0,61.23,0,122.459,0,183.689
					c-12.169-1.818-24.343-3.575-36.527-5.271C1157.188,475.685,1157.204,487.637,1157.217,499.592z M1120.292,283.619
					c-36.713-0.788-73.438-1.485-110.17-2.091c0.181,54.917,0.364,109.833,0.546,164.749c36.701,3.637,73.352,7.819,109.941,12.548
					C1120.505,400.422,1120.399,342.021,1120.292,283.619z"/>
			</g>
			<polyline fill="#282828" points="1109.874,602.469 1234.574,512.764 1227.011,492.312 1186.438,488.837 			"/>
		</g>
	</g>
	<g>
	</g>
	<g>
	</g>
	<g>
	</g>
	<g>
	</g>
	<g>
	</g>
	<g>
	</g>
	<g>
	</g>
	<g>
	</g>
	<g>
	</g>
	<g>
	</g>
	<g>
	</g>
	<g>
	</g>
	<g>
	</g>
	<g>
	</g>
	<g>
	</g>
</g>
</svg>
