<?xml version="1.0" encoding="utf-8"?>
<!-- Generator: Adobe Illustrator 16.0.3, SVG Export Plug-In . SVG Version: 6.00 Build 0)  -->
<!DOCTYPE svg PUBLIC "-//W3C//DTD SVG 1.1//EN" "http://www.w3.org/Graphics/SVG/1.1/DTD/svg11.dtd">
<svg version="1.1" id="Capa_1" xmlns="http://www.w3.org/2000/svg" xmlns:xlink="http://www.w3.org/1999/xlink" x="0px" y="0px"
	 width="1280px" height="450px" viewBox="0 0 1280 450" enable-background="new 0 0 1280 450" xml:space="preserve">
<g id="Capa_3">
	<g>
		<path fill="#FFFFFF" d="M1215.621,7.119H30v150.694l43.137-1.021l-8.542,31.965l-10.037,1.243
			c-2.762,0.342-14.804,1.799-24.558,2.978v183.664l108.78,66.182l48.571-8.195c69.478-12.127,141.327-21.642,213.467-28.264
			l21.207-1.913l8.349-0.628c60.58-4.896,121.854-7.733,182.04-8.431l35.914-0.502c19.758,0.068,36.48,0.456,54.186,0.867
			l1.072,0.024l30.592,0.921l30.367,1.392c30.822,1.421,61.93,3.4,92.459,5.885l29.527,2.395l29.719,3.087
			c50.35,5.235,101.139,12.002,150.957,20.108l45.912,7.646L1250,337.99V41.423l-35.77,1.462L1215.621,7.119z"/>
		<g>
			<path fill="#282828" d="M1141.367,333.075V164.557l-31.26-0.502l-0.406-30.69H886.486l0.098,26.462l-6.918-0.266l-16.996,0.078
				l-0.082-26.274H646.557h-38.278H430.505h-37.849H143.909V233.3l35.998-0.874c8.79-0.219,18.09-0.429,26.918-0.634l0.082,21.788
				l-30.786,2.89l-0.691,30.947c-0.212,0.027-31.521,3.827-31.521,3.827v46.817l-93.206,28.747l93.206,57.419l41.066-7.026
				c70.661-12.332,143.202-21.909,214.619-28.466l21.018-1.917l8.347-0.638c60.746-4.906,122.25-7.786,183.214-8.489l33.738-0.474
				v-0.038c21.258,0.048,38.906,0.461,58.1,0.903l30.723,0.921l30.633,1.409c30.916,1.424,62.242,3.413,93.063,5.92l29.568,2.393
				l30.082,3.126c50.604,5.26,101.74,12.071,151.979,20.247l39.818,6.488l84.217-60.582L1141.367,333.075z M392.104,293.403
				c-7.958,0.646-15.927,1.313-23.909,2.024l0.042-12.372l23.909-1.08L392.104,293.403z M986.66,302.389l-0.242-72.529
				c7.941,0.147,15.889,0.298,23.826,0.451l0.137,74.753C1002.477,304.144,994.564,303.251,986.66,302.389z"/>
			<path fill="#282828" d="M1234.574,328.883V57.872l-36.488-0.71l0.225-36.625H932.75l0.115,31.597l-8.232-0.262l-20.219,0.009
				l-0.098-31.343H647.303h-45.543H390.26h-45.028H50.703v119.116l42.123-1.037c10.452-0.26,21.17-0.512,31.672-0.756l-0.08,25.921
				l-36.715,3.439l-0.16,36.819c-0.256,0.031-36.841,4.552-36.841,4.552v158.216l48.154-8.363
				c84.066-14.67,170.016-26.065,254.982-33.864l24.827-2.28l9.843-0.758c72.271-5.837,145.903-9.268,218.436-10.103l40.6-0.562
				v-0.046c22.891,0.055,45.783,0.549,68.613,1.073l36.299,1.098l36.316,1.675c36.775,1.693,73.986,4.063,110.656,7.044
				l35.143,2.847l35.773,3.722c60.203,6.259,121.035,14.36,180.809,24.082l41.383,6.75l5.957-4.285l-0.139-31.407L1234.574,328.883z
				 M344.578,211.163c-9.468,0.77-18.951,1.563-28.446,2.408l0.048-14.719l28.444-1.286L344.578,211.163z M1051.926,221.852
				l-0.289-86.29c9.447,0.174,18.904,0.354,28.348,0.539l0.16,88.937C1070.744,223.941,1061.328,222.878,1051.926,221.852z"/>
			<g>
				<path fill="#FFFFFF" d="M238.422,98.284c-48.966,0.888-97.917,1.938-146.85,3.15c0-12.246,0-24.489,0-36.736
					c85.723,0,171.442,0,257.165,0c-0.075,21.239-0.15,42.478-0.225,63.716c-12.248,0.322-24.496,0.668-36.742,1.031
					c-0.038,10.792-0.078,21.582-0.113,32.376c-12.244,0.544-24.484,1.121-36.725,1.727c-0.037,10.982-0.073,21.967-0.111,32.95
					c-12.233,0.809-24.469,1.656-36.699,2.545c-0.033,11.195-0.067,22.392-0.101,33.587c-12.224,1.109-24.446,2.271-36.66,3.485
					c-0.03,11.428-0.058,22.854-0.087,34.28c49.388-5.997,98.879-10.994,148.439-14.995c-0.039,10.72-0.075,21.439-0.113,32.157
					c-86.319,7.925-172.402,19.359-258.028,34.303c0-24.489,0-48.981,0-73.474c12.18-1.517,24.368-2.979,36.561-4.393
					c0.009-11.954,0.024-23.907,0.036-35.859c12.202-1.133,24.412-2.223,36.624-3.273c0.022-11.68,0.044-23.36,0.063-35.04
					c12.222-0.786,24.448-1.546,36.674-2.271c0.029-11.431,0.055-22.858,0.085-34.287c12.233-0.485,24.469-0.95,36.708-1.395
					C238.354,120.674,238.388,109.479,238.422,98.284z"/>
				<path fill="#FFFFFF" d="M605.823,184.498c-49.09,0.322-98.169,1.294-147.223,2.91c-0.061,20.448-0.117,40.9-0.177,61.352
					c49.089-2.426,98.217-3.878,147.357-4.363c-0.007,9.983-0.015,19.968-0.022,29.949c-73.745,0.85-147.467,4.244-221.039,10.184
					c0.251-73.275,0.503-146.556,0.753-219.83c73.475,0,146.949,0,220.423,0c-0.008,9.982-0.013,19.965-0.02,29.948
					c-49.007,0.081-98.014,0.323-147.017,0.729c-0.059,20.452-0.118,40.902-0.177,61.354c49.038-1.209,98.094-1.938,147.154-2.181
					C605.834,164.531,605.828,174.515,605.823,184.498z"/>
				<path fill="#FFFFFF" d="M716.307,214.901c0.027,20.026,0.053,40.054,0.078,60.081c-24.578-0.564-49.162-0.848-73.748-0.848
					c0-69.813,0-139.624,0-209.438c73.475,0,146.955,0,220.43,0c0.029,10.336,0.061,20.673,0.098,31.009
					c12.248,0.121,24.496,0.252,36.744,0.394c0.109,31.406,0.217,62.81,0.324,94.215c-24.512-1.132-49.027-2.1-73.557-2.907
					c0.027,10.225,0.061,20.448,0.09,30.676c12.268,0.505,24.531,1.061,36.795,1.667c0.031,10.336,0.066,20.672,0.1,31.01
					c12.818,0.656,25.631,1.378,38.443,2.165c0.035,10.578,0.072,21.157,0.109,31.737c-37.338-3.034-74.713-5.411-112.109-7.137
					c-0.027-10.135-0.049-20.268-0.076-30.402c-12.275-0.485-24.557-0.91-36.834-1.272c-0.021-10.065-0.039-20.128-0.059-30.191
					C740.861,215.356,728.584,215.104,716.307,214.901z M716.15,94.738c0.039,30.04,0.082,60.081,0.117,90.124
					c24.543,0.322,49.082,0.808,73.611,1.453c-0.021-10.134-0.047-20.269-0.072-30.403c12.264,0.242,24.525,0.516,36.781,0.816
					c-0.057-20.451-0.117-40.902-0.174-61.354C789.662,95.072,752.906,94.858,716.15,94.738z"/>
				<path fill="#FFFFFF" d="M1157.217,315.711c-60.859-9.899-121.939-18.031-183.148-24.396c-0.037-10.791-0.07-21.581-0.109-32.372
					c-12.246-1.092-24.492-2.122-36.744-3.093c-0.188-53.097-0.375-106.196-0.563-159.293c12.248,0.161,24.492,0.332,36.734,0.515
					c-0.035-10.792-0.07-21.581-0.109-32.373c61.23,0,122.459,0,183.689,0c0.012,11.952,0.021,23.905,0.033,35.856
					c12.238,0.284,24.469,0.576,36.705,0.88c0,61.23,0,122.459,0,183.689c-12.17-1.818-24.344-3.575-36.527-5.271
					C1157.188,291.804,1157.203,303.756,1157.217,315.711z M1120.291,99.738c-36.713-0.788-73.438-1.485-110.17-2.092
					c0.182,54.917,0.365,109.833,0.547,164.749c36.701,3.637,73.352,7.819,109.941,12.548
					C1120.504,216.541,1120.398,158.14,1120.291,99.738z"/>
			</g>
			<polyline fill="#282828" points="1109.873,418.588 1234.574,328.883 1227.01,308.431 1186.438,304.956 			"/>
		</g>
	</g>
</g>
<g>
</g>
<g>
</g>
<g>
</g>
<g>
</g>
<g>
</g>
<g>
</g>
<g>
</g>
<g>
</g>
<g>
</g>
<g>
</g>
<g>
</g>
<g>
</g>
<g>
</g>
<g>
</g>
<g>
</g>
</svg>
