<?xml version="1.0" encoding="utf-8"?>
<!-- Generator: Adobe Illustrator 16.0.3, SVG Export Plug-In . SVG Version: 6.00 Build 0)  -->
<!DOCTYPE svg PUBLIC "-//W3C//DTD SVG 1.1//EN" "http://www.w3.org/Graphics/SVG/1.1/DTD/svg11.dtd">
<svg version="1.1" id="Capa_1" xmlns="http://www.w3.org/2000/svg" xmlns:xlink="http://www.w3.org/1999/xlink" x="0px" y="0px"
	 width="1280px" height="825px" viewBox="0 0 1280 825" enable-background="new 0 0 1280 825" xml:space="preserve">
<g transform="translate(0.000000,825.000000) scale(0.100000,-0.100000)">
	<path fill="#E9E9E9" d="M2900,8229c-212.998-47.001-387.998-134.003-590-296.005C1422.998,7226.002,512.002,5309,150,3389.997
		c-107.998-570.996-170-1275.996-141.001-1595c7.002-70.996,17.002-178.994,22.002-240C107.998,721.003,441.001,186.003,965,51.003
		c207.002-52.998,327.998-60,493.999-27.002c318.999,62.998,590,210.996,927.002,507.998c306.001,269.004,590,595,1098.999,1257.998
		c237.002,309.004,357.998,461.006,418.999,528.008l38.999,41.992H6400h2457.001l38.994-41.992
		c61.006-67.002,182.002-219.004,419.004-528.008c437.998-570.996,619.004-785,899.004-1065c435-435,752.998-630.996,1145.996-705
		c147.002-27.998,279.004-20,475,31.006c407.998,105,710,462.998,849.004,1008.994c51.992,204.004,65.996,298.008,105,715
		c13.994,137.002,13.994,347.002,1.992,468.008c-5.996,50.996-15,163.994-20.996,251.992c-55.996,804.004-299.004,1849.004-645,2770
		c-540,1439.004-1255,2509.004-1905,2847.998c-107.998,57.002-199.004,89.003-325,116.005c-95.996,20-122.998,20.996-900,20.996
		h-800l-75.996-28.994c-90-33.007-166.006-78.007-281.006-164.003c-45-35-142.998-109.004-215.996-165
		c-74.004-55-167.998-117.998-210-139.004l-77.002-37.998l-915-2.998c-1029.004-2.998-957.998-7.998-1090,74.004
		c-65,40-124.004,82.998-340,248.994c-122.998,95-219.004,152.998-307.002,186.005L4605,8249.996L3795,8249
		C3043.999,8247.994,2978.999,8246.002,2900,8229z M9637.997,6977.995c64.004-23.994,139.004-93.994,172.002-162.998
		c35-72.002,40-188.994,10-267.002c-27.998-75.996-97.998-148.994-175-183.994c-74.004-34.004-172.002-37.998-252.998-10
		c-70,23.994-152.998,100-189.004,173.994c-23.994,49.004-27.998,69.004-27.998,142.002c0.996,101.006,20.996,154.004,85.996,225
		C9359.003,7001.002,9494.999,7031.002,9637.997,6977.995z M3363.999,6837.995c3.003-12.998,6.001-172.998,6.001-355v-332.998
		h343.999c278.999,0,346.001-2.998,355-13.994c8.003-9.004,11.001-82.002,8.999-242.002L4075,5664.997l-350-5l-350-5l-5-347.998
		c-3.999-293.994-7.002-348.994-20-357.001c-7.998-5-113.999-10-236.001-10c-172.998,0-223.999,3.008-232.998,13.008
		c-7.002,8.994-12.002,123.994-13.003,357.998L2865,5654.997l-350,5l-350,5v240v240l352.998,2.998l352.002,2.002v347.998
		c0,192.002,2.998,352.002,7.002,355c2.998,4.004,112.998,7.002,243.999,7.002h236.997L3363.999,6837.995z M8835.995,6179
		c66.006-25,140-95,174.004-164.004c20.996-42.002,25-63.994,25-145c0-80.996-4.004-102.998-24.004-145
		c-100-202.002-360.996-253.994-525.996-103.994c-32.002,30-65,72.998-82.002,106.992c-23.994,49.004-27.998,69.004-27.998,142.002
		c0.996,101.006,20.996,154.004,85.996,225C8559.003,6201.002,8694.999,6231.999,8835.995,6179z M10465.995,6169
		c164.004-77.998,235-272.002,160-435c-95-210-361.992-265-532.998-111.006c-82.002,74.004-123.994,200-102.998,305
		C10037.001,6152.995,10262.001,6267.995,10465.995,6169z M9660.995,5361.999c107.002-52.002,182.002-155.996,195-273.994
		c15-130-67.998-273.008-193.994-335c-49.004-24.004-69.004-28.008-142.002-28.008c-100.996,0-154.004,20-225,86.006
		c-90.996,83.994-129.004,207.002-100.996,320c30,117.002,106.992,202.998,215.996,242.998
		C9474.003,5396.999,9600.995,5391.002,9660.995,5361.999z M5155,4074.997c355-75,587.002-433.994,509.004-787.998
		c-43.008-195-177.002-363.994-355-450c-111.006-53.994-183.008-70.996-299.004-70c-297.998,1.006-562.002,209.004-635.996,502.998
		c-22.002,86.006-22.002,236.006,0.996,320c77.002,292.002,339.004,496.006,640,499.004
		C5054.003,4089.001,5115.996,4083.005,5155,4074.997z M7917.997,4074.001c242.002-47.998,444.004-242.002,507.002-484.004
		c22.002-85,22.998-235,0.996-320c-73.994-293.994-335.996-500.996-635.996-502.998c-115.996-0.996-187.998,16.006-299.004,70
		c-177.998,86.006-311.992,255-355,450c-52.998,241.006,43.008,511.006,234.004,657.998
		C7530.995,4069.001,7722.001,4114.001,7917.997,4074.001z"/>
</g>
</svg>
