<?xml version="1.0" encoding="utf-8"?>
<!-- Generator: Adobe Illustrator 16.0.3, SVG Export Plug-In . SVG Version: 6.00 Build 0)  -->
<!DOCTYPE svg PUBLIC "-//W3C//DTD SVG 1.1//EN" "http://www.w3.org/Graphics/SVG/1.1/DTD/svg11.dtd">
<svg version="1.1" xmlns="http://www.w3.org/2000/svg" xmlns:xlink="http://www.w3.org/1999/xlink" x="0px" y="0px"
	 width="327.798px" height="346.271px" viewBox="50.702 20.538 327.798 346.271"
	 enable-background="new 50.702 20.538 327.798 346.271" xml:space="preserve">
<g id="Capa_1">
</g>
<g id="Capa_2">
	<g>
		<defs>
			<rect id="SVGID_1_" x="50.703" y="20.538" width="327.797" height="346.271"/>
		</defs>
		<clipPath id="SVGID_2_">
			<use xlink:href="#SVGID_1_"  overflow="visible"/>
		</clipPath>
		<path clip-path="url(#SVGID_2_)" fill="#FFFFFF" d="M378.5,366.809V20.538H47.834v136.853l25.303-0.599l-8.542,31.965L54.557,190
			c-1.07,0.132-3.541,0.433-6.724,0.819v175.989H378.5z"/>
		<path clip-path="url(#SVGID_2_)" fill="#282828" d="M378.5,294.534c-3.433,0.292-6.868,0.586-10.306,0.893l0.042-12.372
			l10.264-0.464V133.365H143.909V233.3l35.997-0.874c8.79-0.219,18.091-0.429,26.919-0.634l0.081,21.788l-30.785,2.89l-0.691,30.947
			c-0.212,0.026-31.521,3.827-31.521,3.827v46.816l-93.206,28.748H378.5V294.534z"/>
		<path clip-path="url(#SVGID_2_)" fill="#282828" d="M345.231,20.538H50.703v119.116l42.123-1.037
			c10.451-0.26,21.17-0.512,31.672-0.756l-0.08,25.921l-36.715,3.438l-0.16,36.819c-0.256,0.031-36.841,4.552-36.841,4.552v158.217
			l48.153-8.363c84.066-14.67,170.017-26.065,254.982-33.864l24.662-2.266V20.538H345.231z M344.577,211.163
			c-9.468,0.771-18.95,1.563-28.445,2.408l0.048-14.72l28.443-1.285L344.577,211.163z"/>
		<path clip-path="url(#SVGID_2_)" fill="#FFFFFF" d="M201.273,270.395c0.029-11.426,0.058-22.852,0.087-34.279
			c12.215-1.215,24.437-2.376,36.66-3.485c0.034-11.194,0.068-22.392,0.102-33.587c12.229-0.889,24.466-1.736,36.698-2.545
			c0.038-10.983,0.074-21.968,0.111-32.95c12.241-0.606,24.48-1.183,36.725-1.727c0.035-10.794,0.075-21.584,0.113-32.376
			c12.246-0.363,24.494-0.709,36.742-1.031c0.075-21.238,0.149-42.477,0.225-63.716c-85.723,0-171.441,0-257.165,0
			c0,12.247,0,24.49,0,36.736c48.934-1.212,97.885-2.262,146.851-3.15c-0.034,11.195-0.068,22.39-0.1,33.584
			c-12.238,0.445-24.475,0.91-36.708,1.395c-0.029,11.429-0.056,22.856-0.085,34.287c-12.226,0.725-24.451,1.485-36.674,2.271
			c-0.019,11.68-0.041,23.36-0.063,35.04c-12.212,1.05-24.422,2.14-36.624,3.272c-0.013,11.952-0.027,23.905-0.036,35.859
			c-12.193,1.414-24.381,2.876-36.562,4.393c0,24.493,0,48.985,0,73.475c87.596-1.36,169.262-0.693,257.622-3.357
			c0.038-10.718,0.268-39.283,0.307-50.003C297.728,270.27,251.833,270.5,201.273,270.395z"/>
	</g>
</g>
</svg>
