<?xml version="1.0" encoding="utf-8"?>
<!-- Generator: Adobe Illustrator 16.0.3, SVG Export Plug-In . SVG Version: 6.00 Build 0)  -->
<!DOCTYPE svg PUBLIC "-//W3C//DTD SVG 1.1//EN" "http://www.w3.org/Graphics/SVG/1.1/DTD/svg11.dtd">
<svg version="1.1" id="Capa_1" xmlns="http://www.w3.org/2000/svg" xmlns:xlink="http://www.w3.org/1999/xlink" x="0px" y="0px"
	 width="327.797px" height="346.271px" viewBox="0 0 327.797 346.271" enable-background="new 0 0 327.797 346.271"
	 xml:space="preserve">
<g id="Capa_1_1_">
</g>
<g>
	<defs>
		<rect id="SVGID_1_" y="0" width="327.797" height="346.271"/>
	</defs>
	<clipPath id="SVGID_2_">
		<use xlink:href="#SVGID_1_"  overflow="visible"/>
	</clipPath>
	<path clip-path="url(#SVGID_2_)" fill="#282828" d="M327.797,273.996c-3.434,0.292-6.869,0.586-10.307,0.893l0.043-12.371
		l10.264-0.465V112.827H93.206v99.935l35.998-0.874c8.789-0.219,18.09-0.429,26.918-0.634l0.082,21.788l-30.785,2.89l-0.691,30.947
		c-0.213,0.026-31.521,3.827-31.521,3.827v46.816L0,346.27h327.797V273.996z"/>
</g>
<g>
	<defs>
		<rect id="SVGID_3_" y="0" width="327.797" height="346.271"/>
	</defs>
	<use xlink:href="#SVGID_3_"  overflow="visible" fill="#40348A"/>
	<clipPath id="SVGID_4_">
		<use xlink:href="#SVGID_3_"  overflow="visible"/>
	</clipPath>
	<path clip-path="url(#SVGID_4_)" fill="#40348A" d="M294.528,0H0v119.116l42.123-1.037c10.451-0.26,21.17-0.512,31.672-0.756
		l-0.08,25.921L37,146.681l-0.16,36.819c-0.256,0.031-36.841,4.552-36.841,4.552V346.27l48.153-8.363
		c84.065-14.67,170.017-26.065,254.981-33.864l24.662-2.266V0H294.528z M293.874,190.625c-9.467,0.771-18.949,1.563-28.445,2.408
		l0.049-14.72l28.443-1.285L293.874,190.625z"/>
</g>
<g>
	<defs>
		<rect id="SVGID_5_" y="0" width="327.797" height="346.271"/>
	</defs>
	<clipPath id="SVGID_6_">
		<use xlink:href="#SVGID_5_"  overflow="visible"/>
	</clipPath>
	<path clip-path="url(#SVGID_6_)" fill="#FFFFFF" d="M150.57,249.857c0.028-11.427,0.058-22.853,0.087-34.279
		c12.215-1.215,24.438-2.376,36.66-3.485c0.034-11.193,0.068-22.392,0.102-33.587c12.229-0.889,24.467-1.735,36.698-2.545
		c0.038-10.982,0.074-21.968,0.111-32.95c12.241-0.605,24.479-1.183,36.726-1.727c0.035-10.794,0.074-21.584,0.111-32.376
		c12.246-0.363,24.494-0.709,36.742-1.031c0.076-21.238,0.15-42.477,0.227-63.716c-85.724,0-171.441,0-257.166,0
		c0,12.247,0,24.49,0,36.736c48.934-1.212,97.885-2.263,146.852-3.15c-0.034,11.195-0.068,22.39-0.101,33.584
		c-12.237,0.445-24.475,0.91-36.708,1.396c-0.029,11.429-0.056,22.855-0.085,34.286c-12.226,0.726-24.45,1.485-36.674,2.271
		c-0.019,11.68-0.041,23.36-0.063,35.04c-12.211,1.05-24.421,2.14-36.624,3.271c-0.013,11.952-0.027,23.905-0.036,35.859
		c-12.193,1.414-24.381,2.876-36.562,4.393c0,24.493,0,48.985,0,73.476c87.597-1.36,169.263-0.693,257.622-3.357
		c0.039-10.718,0.268-39.282,0.307-50.003C247.025,249.732,201.129,249.962,150.57,249.857z"/>
</g>
</svg>
