<?xml version="1.0" encoding="utf-8"?>
<!-- Generator: Adobe Illustrator 16.0.3, SVG Export Plug-In . SVG Version: 6.00 Build 0)  -->
<!DOCTYPE svg PUBLIC "-//W3C//DTD SVG 1.1//EN" "http://www.w3.org/Graphics/SVG/1.1/DTD/svg11.dtd">
<svg version="1.1" xmlns="http://www.w3.org/2000/svg" xmlns:xlink="http://www.w3.org/1999/xlink" x="0px" y="0px"
	 width="945.963px" height="443px" viewBox="167.037 4.5 945.963 443" enable-background="new 167.037 4.5 945.963 443"
	 xml:space="preserve">
<g id="Capa_1">
	<g id="Capa_1_1_" display="none">
		<g id="Capa_3" display="inline">
			<g>
				<path fill="#FFFFFF" d="M1215.621,7.119H30v150.692l43.137-1.021l-8.542,31.965L54.558,190
					c-2.762,0.342-14.804,1.799-24.558,2.978v183.664l108.78,66.182l48.571-8.193c69.478-12.127,141.327-21.644,213.467-28.266
					l21.208-1.913l8.349-0.628c60.58-4.896,121.854-7.731,182.04-8.431l35.914-0.502c19.758,0.068,36.479,0.456,54.186,0.867
					l1.072,0.022l30.592,0.921l30.367,1.394c30.822,1.421,61.93,3.398,92.459,5.885l29.527,2.396l29.719,3.088
					c50.35,5.233,101.139,12.002,150.957,20.106l45.912,7.646L1250,337.99V41.423l-35.77,1.462L1215.621,7.119z"/>
				<g>
					<path fill="#282828" d="M1141.367,333.073V164.557l-31.26-0.502l-0.406-30.69H886.486l0.098,26.464l-6.918-0.268l-16.996,0.078
						l-0.082-26.274H646.557H608.28H430.505h-37.849H143.909V233.3l35.998-0.874c8.79-0.219,18.09-0.429,26.918-0.634l0.082,21.788
						l-30.786,2.89l-0.691,30.947c-0.212,0.025-31.521,3.827-31.521,3.827v46.815l-93.206,28.747l93.206,57.419l41.066-7.026
						c70.661-12.332,143.202-21.908,214.619-28.466l21.018-1.917l8.347-0.638c60.746-4.906,122.25-7.786,183.214-8.489l33.738-0.474
						v-0.038c21.258,0.048,38.905,0.461,58.1,0.901l30.724,0.923l30.634,1.407c30.916,1.426,62.241,3.413,93.063,5.92l29.568,2.395
						l30.082,3.126c50.604,5.26,101.74,12.071,151.979,20.247l39.818,6.488l84.217-60.582L1141.367,333.073z M392.104,293.403
						c-7.958,0.646-15.927,1.313-23.909,2.024l0.042-12.372l23.909-1.08L392.104,293.403z M986.66,302.389l-0.242-72.529
						c7.941,0.147,15.889,0.3,23.826,0.451l0.137,74.753C1002.477,304.144,994.564,303.25,986.66,302.389z"/>
					<path fill="#282828" d="M1234.574,328.883V57.872l-36.488-0.71l0.225-36.625H932.75l0.115,31.597l-8.232-0.262l-20.219,0.009
						l-0.098-31.343H647.303H601.76h-211.5h-45.028H50.703v119.114l42.123-1.035c10.452-0.262,21.17-0.514,31.672-0.758
						l-0.08,25.921l-36.715,3.439l-0.16,36.819c-0.256,0.029-36.841,4.552-36.841,4.552v158.216l48.154-8.363
						c84.066-14.67,170.016-26.063,254.982-33.864l24.827-2.278l9.843-0.758c72.271-5.839,145.903-9.27,218.438-10.104l40.6-0.562
						v-0.047c22.891,0.056,45.783,0.55,68.613,1.072l36.299,1.1l36.314,1.675c36.775,1.691,73.986,4.063,110.656,7.044l35.145,2.847
						l35.771,3.722c60.203,6.261,121.035,14.36,180.811,24.082l41.383,6.75l5.957-4.283l-0.141-31.407L1234.574,328.883z
						 M344.578,211.163c-9.468,0.77-18.951,1.563-28.446,2.406l0.048-14.719l28.444-1.286L344.578,211.163z M1051.926,221.852
						l-0.289-86.29c9.447,0.174,18.904,0.354,28.35,0.539l0.16,88.938C1070.744,223.941,1061.328,222.878,1051.926,221.852z"/>
					<g>
						<path fill="#FFFFFF" d="M238.422,98.284c-48.966,0.888-97.917,1.938-146.85,3.148c0-12.246,0-24.489,0-36.736
							c85.723,0,171.442,0,257.165,0c-0.075,21.239-0.15,42.479-0.225,63.718c-12.248,0.32-24.496,0.668-36.742,1.029
							c-0.038,10.792-0.078,21.582-0.113,32.376c-12.244,0.544-24.484,1.121-36.725,1.729c-0.037,10.98-0.073,21.967-0.111,32.95
							c-12.233,0.809-24.469,1.654-36.699,2.545c-0.033,11.193-0.067,22.392-0.101,33.587c-12.224,1.107-24.446,2.271-36.66,3.483
							c-0.03,11.43-0.058,22.854-0.087,34.28c49.388-5.997,98.879-10.994,148.439-14.995c-0.039,10.722-0.075,21.439-0.113,32.157
							c-86.319,7.925-172.402,19.358-258.028,34.303c0-24.487,0-48.979,0-73.474c12.18-1.517,24.368-2.979,36.561-4.393
							c0.009-11.954,0.024-23.907,0.036-35.859c12.202-1.133,24.412-2.223,36.624-3.273c0.022-11.68,0.044-23.358,0.063-35.04
							c12.222-0.784,24.448-1.546,36.674-2.271c0.029-11.431,0.055-22.858,0.085-34.287c12.233-0.485,24.469-0.95,36.708-1.395
							C238.354,120.674,238.388,109.479,238.422,98.284z"/>
						<path fill="#FFFFFF" d="M605.823,184.498c-49.091,0.32-98.169,1.294-147.225,2.91c-0.061,20.446-0.115,40.898-0.177,61.352
							c49.089-2.426,98.217-3.878,147.357-4.363c-0.008,9.983-0.017,19.968-0.022,29.949c-73.745,0.85-147.467,4.244-221.039,10.184
							c0.251-73.273,0.503-146.556,0.753-219.828c73.475,0,146.949,0,220.421,0c-0.008,9.98-0.013,19.965-0.02,29.946
							c-49.007,0.081-98.014,0.323-147.018,0.729c-0.06,20.452-0.117,40.9-0.178,61.354c49.038-1.209,98.096-1.938,147.154-2.181
							C605.834,164.531,605.828,174.515,605.823,184.498z"/>
						<path fill="#FFFFFF" d="M716.307,214.901c0.027,20.026,0.055,40.056,0.078,60.081c-24.578-0.563-49.162-0.848-73.748-0.848
							c0-69.813,0-139.624,0-209.438c73.477,0,146.955,0,220.432,0c0.027,10.336,0.061,20.675,0.098,31.011
							c12.248,0.121,24.496,0.252,36.744,0.394c0.107,31.406,0.217,62.812,0.324,94.215c-24.514-1.132-49.027-2.1-73.559-2.906
							c0.027,10.226,0.063,20.447,0.09,30.677c12.27,0.505,24.531,1.061,36.795,1.667c0.031,10.336,0.066,20.672,0.102,31.01
							c12.816,0.656,25.631,1.378,38.441,2.165c0.035,10.578,0.072,21.157,0.109,31.737c-37.338-3.034-74.713-5.411-112.109-7.139
							c-0.025-10.135-0.049-20.268-0.074-30.4c-12.275-0.485-24.559-0.91-36.834-1.272c-0.021-10.063-0.039-20.128-0.061-30.189
							C740.861,215.356,728.584,215.104,716.307,214.901z M716.15,94.738c0.039,30.04,0.082,60.081,0.117,90.124
							c24.543,0.322,49.08,0.81,73.609,1.453c-0.021-10.134-0.047-20.269-0.072-30.401c12.266,0.24,24.525,0.516,36.781,0.814
							c-0.057-20.451-0.117-40.9-0.174-61.354C789.662,95.072,752.906,94.858,716.15,94.738z"/>
						<path fill="#FFFFFF" d="M1157.217,315.711c-60.857-9.899-121.938-18.031-183.146-24.396
							c-0.037-10.791-0.07-21.581-0.109-32.372c-12.246-1.092-24.492-2.122-36.744-3.093c-0.188-53.097-0.375-106.196-0.563-159.293
							c12.248,0.161,24.49,0.332,36.732,0.515c-0.035-10.792-0.068-21.581-0.107-32.373c61.229,0,122.459,0,183.688,0
							c0.013,11.952,0.021,23.905,0.033,35.856c12.238,0.284,24.469,0.576,36.705,0.88c0,61.23,0,122.459,0,183.689
							c-12.17-1.818-24.344-3.575-36.527-5.271C1157.188,291.804,1157.203,303.756,1157.217,315.711z M1120.291,99.738
							c-36.713-0.786-73.438-1.483-110.17-2.092c0.182,54.917,0.365,109.833,0.547,164.749
							c36.701,3.637,73.352,7.819,109.941,12.548C1120.504,216.541,1120.398,158.14,1120.291,99.738z"/>
					</g>
					<polyline fill="#282828" points="1109.873,418.588 1234.574,328.883 1227.01,308.431 1186.438,304.954 					"/>
				</g>
			</g>
		</g>
	</g>
	<g id="Capa_2" display="none">
		<path display="inline" fill="#FFFFFF" d="M660.672,445H491.723l-6.386,0.15c-0.264,0.008-0.529-0.021-0.792-0.021
			c-5,0-9.871-1.666-13.847-4.726l-31.646-24.13c-6.188-4.757-10.054-12.334-9.054-20.028V356h-1.733
			c-6.883,0-13.051-2.936-17.218-7.771c-45.488,4.947-90.707,11.385-134.692,19.061l-32.988,5.685
			c-1.275,0.22-2.558,0.342-3.836,0.342c-4.187,0-8.318-1.146-11.924-3.372l-73.406-45.258c-1.451-0.757-2.829-1.674-4.104-2.746
			c-5.134-4.316-8.098-10.68-8.098-17.389V177.644c0-11.47,8.55-21.141,19.934-22.549c0,0,4.346-0.536,9.702-1.198l0.039-8.997
			l-6.397,0.158c-0.186,0.004-0.373,0.006-0.559,0.006c-5.922,0-11.617-2.313-15.866-6.458c-4.383-4.274-6.854-10.14-6.854-16.262
			V25.682C142,13.134,152.172,3,164.72,3h684.7c4.158,0,8.055,1.116,11.406,3.064C864.261,4.075,868.188,3,872.227,3h213.009
			c6.044,0,11.839,2.39,16.104,6.673c4.266,4.284,6.646,10.081,6.616,16.125l-0.037,7.967l7.296,0.28
			C1127.411,34.513,1137,44.537,1137,56.746v217.385c0,6.248-2.514,12.218-7.052,16.51c-1.054,0.996-2.161,1.879-3.363,2.646
			l-22.923,19.672c-2.285,3.084-5.326,5.57-8.856,7.181l-67.975,44.903c-3.735,2.467-8.094,3.762-12.521,3.762
			c-1.219,0-2.438-0.102-3.656-0.297l-31.782-5.207C944.487,357.703,910,352.912,875,349.024v49.259
			c0,8.19-4.48,15.367-10.979,19.366l-36.273,24.6c-3.766,2.563-8.253,3.999-12.804,3.999C814.878,446.246,660.672,445,660.672,445z
			"/>
		<g display="inline">
			<path fill="#282828" d="M1039,142.322l-24.793,0.446L1014.164,119H835.121l0.074,20.374l-5.552-0.641l-13.632,0.702L815.95,119
				H642.665h-30.703H469.366H439.01H240v78.459l28.615-0.699c7.051-0.175,14.385-0.344,21.463-0.51l0.002,17.477l-24.729,2.317
				l-0.306,24.826c-0.173,0.021-25.046,3.069-25.046,3.069v37.553l-75.018,23.057l74.626,46.062l32.88-5.639
				c56.678-9.893,114.833-17.572,172.116-22.833l16.841-1.537l6.688-0.511c48.728-3.938,99.482-6.248,148.386-6.811l28.479-0.38
				v-0.032c16,0.036,29.781,0.369,45.174,0.729l23.938,0.738l24.206,1.13c24.798,1.142,49.753,2.733,74.474,4.748l23.624,1.92
				l24.089,2.506c40.593,4.222,81.583,9.681,121.88,16.237l31.932,5.209l70.813-46.917L1039,277.494V142.322z M438.566,245.674
				c-6.386,0.516-12.78,1.051-19.179,1.624l0.032-9.927l19.178-0.867L438.566,245.674z M915.469,252.878l-0.19-58.178
				c6.368,0.116,12.741,0.236,19.108,0.361l0.107,59.961C928.155,254.286,921.811,253.57,915.469,252.878z"/>
			<polygon fill="#282828" points="1097.493,246.603 1071.591,256.33 1062.73,282.347 1085.403,299.168 1114.325,274.131 			"/>
		</g>
		<path display="inline" fill="#282828" d="M1115,56.746l-29.605-1.47L1085.234,25H872.227l0.093,26.245l-6.604,0.239l-16.219-0.666
			L849.42,25H643.263H606.73H437.086h-36.119H164v97.346l34.148-0.832c8.383-0.208,17.161-0.411,25.583-0.604l0.028,20.789
			l-29.406,2.759l-0.464,29.536c-0.206,0.023-29.888,3.65-29.888,3.65v126.905l38.984-6.706
			c67.429-11.768,136.554-20.907,204.704-27.16l20.007-1.83l7.938-0.608c57.971-4.684,117.826-7.435,176.006-8.104L645,259.69
			v-0.032c16,0.04,35.948,0.436,54.262,0.857l28.73,0.878l28.939,1.346c29.499,1.357,59.248,3.261,88.662,5.648l28.143,2.281
			l28.673,2.987c48.29,5.02,96.862,11.518,144.808,19.318l37.783,6.192v-29.41l30,4.373V56.746L1115,56.746z M377.665,169.83
			l22.813-1.03l-0.036,10.904c-7.597,0.614-15.202,1.255-22.814,1.935L377.665,169.83z M967.817,188.279l-0.228-69.213
			c7.572,0.141,15.16,0.283,22.732,0.431l0.131,71.337C982.913,189.953,975.362,189.1,967.817,188.279z"/>
		<g display="inline">
			<path fill="#FFFFFF" d="M315.292,89.164c-39.274,0.708-78.542,1.552-117.792,2.523c0-9.824,0-19.643,0-29.469
				c68.76,0,137.518,0,206.278,0c-0.06,17.04-0.122,34.073-0.18,51.11c-9.827,0.261-19.649,0.531-29.471,0.827
				c-0.033,8.653-0.062,17.31-0.09,25.968c-9.823,0.438-19.643,0.897-29.46,1.384c-0.027,8.812-0.058,17.621-0.087,26.429
				c-9.814,0.648-19.63,1.332-29.438,2.041c-0.025,8.983-0.056,17.961-0.081,26.943c-9.808,0.893-19.61,1.824-29.408,2.796
				c-0.022,9.164-0.044,18.33-0.068,27.499c39.617-4.814,79.312-8.819,119.066-12.029c-0.033,8.598-0.061,17.194-0.091,25.792
				c-69.242,6.361-138.288,15.532-206.97,27.521c0-19.646,0-39.293,0-58.939c9.772-1.216,19.547-2.388,29.327-3.521
				c0.008-9.586,0.02-19.177,0.029-28.762c9.79-0.909,19.58-1.782,29.375-2.628c0.018-9.368,0.036-18.736,0.056-28.104
				c9.8-0.632,19.606-1.242,29.413-1.822c0.022-9.169,0.044-18.334,0.067-27.502c9.813-0.392,19.631-0.764,29.444-1.12
				C315.239,107.122,315.266,98.139,315.292,89.164z"/>
			<path fill="#FFFFFF" d="M609.991,158.316c-39.374,0.262-78.744,1.037-118.088,2.333c-0.048,16.405-0.099,32.812-0.143,49.215
				c39.373-1.944,78.783-3.112,118.198-3.501c-0.008,8.011-0.013,16.018-0.021,24.022c-59.148,0.681-118.286,3.401-177.298,8.167
				c0.202-58.774,0.404-117.554,0.606-176.331c58.932,0,117.869,0,176.803,0c-0.005,8.009-0.007,16.016-0.016,24.026
				c-39.308,0.063-78.618,0.256-117.923,0.584c-0.048,16.402-0.096,32.809-0.142,49.211c39.332-0.972,78.678-1.556,118.034-1.749
				C610.002,142.302,609.996,150.31,609.991,158.316z"/>
			<path fill="#FFFFFF" d="M698.615,182.704c0.019,16.062,0.04,32.126,0.063,48.19c-19.717-0.453-39.434-0.683-59.156-0.683
				c0-55.998,0-111.996,0-167.993c58.938,0,117.873,0,176.811,0c0.023,8.292,0.054,16.583,0.083,24.873
				c9.821,0.1,19.644,0.206,29.47,0.317c0.088,25.189,0.174,50.379,0.262,75.569c-19.662-0.903-39.326-1.682-59.003-2.333
				c0.026,8.203,0.053,16.405,0.07,24.607c9.841,0.403,19.678,0.85,29.514,1.338c0.024,8.292,0.059,16.582,0.082,24.874
				c10.283,0.525,20.56,1.104,30.835,1.736c0.031,8.483,0.062,16.972,0.09,25.458c-29.944-2.437-59.931-4.343-89.929-5.728
				c-0.021-8.128-0.034-16.256-0.058-24.386c-9.85-0.394-19.697-0.731-29.548-1.021c-0.017-8.073-0.03-16.146-0.044-24.219
				C718.308,183.07,708.461,182.865,698.615,182.704z M698.486,86.32c0.033,24.096,0.064,48.191,0.098,72.289
				c19.686,0.261,39.365,0.648,59.043,1.167c-0.016-8.13-0.039-16.261-0.059-24.389c9.839,0.192,19.673,0.414,29.504,0.656
				c-0.043-16.403-0.096-32.809-0.141-49.211C757.452,86.586,727.973,86.416,698.486,86.32z"/>
			<path fill="#FFFFFF" d="M1052.275,263.563c-48.817-7.938-97.813-14.462-146.906-19.563c-0.028-8.66-0.061-17.314-0.09-25.974
				c-9.82-0.873-19.644-1.695-29.477-2.478c-0.146-42.59-0.299-85.181-0.449-127.772c9.821,0.129,19.646,0.269,29.468,0.412
				c-0.028-8.654-0.057-17.311-0.087-25.968c49.11,0,98.228,0,147.341,0c0.008,9.588,0.018,19.177,0.024,28.763
				c9.815,0.229,19.627,0.461,29.439,0.706c0,49.114,0,98.227,0,147.342c-9.757-1.46-19.528-2.865-29.295-4.229
				C1052.255,244.389,1052.266,253.974,1052.275,263.563z M1022.657,90.328c-29.449-0.634-58.904-1.189-88.367-1.676
				c0.146,44.049,0.288,88.101,0.436,132.147c29.438,2.916,58.837,6.27,88.188,10.063
				C1022.828,184.021,1022.742,137.174,1022.657,90.328z"/>
		</g>
		<polyline display="inline" fill="#282828" points="628.009,314.787 656.125,314.221 642.966,305.133 616.934,305.512 		"/>
		<g display="inline">
			<polygon fill="#282828" points="804,344 804,336 773,336 773,314 709,314 709,324 641.311,324 637.495,324 570,324 570,314 
				465,314 465,370 484,370 484,422 550,422 550,413 555,413 555,422 637.495,422 641.311,422 708.706,422 722.693,422 814,422 
				814,344 			"/>
			<polyline fill="#282828" points="484.545,422.375 453.17,398.36 490.013,386 571.813,386 788.184,386 795.958,411.629 			"/>
			<polyline fill="#282828" points="513.761,420.88 541.203,393.271 759.688,386 828.293,386 851.98,398.366 814.906,423.51 			"/>
			<polyline fill="#282828" points="550,422 558,422 558,410.26 537.245,411.537 			"/>
		</g>
		<g display="inline">
			<polygon fill="#282828" points="453,398 453,334 428,334 428,288 538,288 538,334 512,334 512,398 			"/>
			<polygon fill="#282828" points="545,398 545,385 531,385 531,313 545,313 545,300 630,300 630,313 643,313 643,372 630,372 
				630,398 			"/>
			<polygon fill="#282828" points="648,398 648,385 636,385 636,313 648,313 648,300 734,300 734,345 694,345 694,353 734,353 
				734,398 			"/>
			<polygon fill="#282828" points="741,398 741,288 799,288 799,313 839,313 839,327 852,327 852,398 			"/>
		</g>
		<path display="inline" fill="#FFFFFF" d="M522.37,316.926h-26.052v65.139H470.26v-65.139h-26.059v-13.029h78.168L522.37,316.926
			L522.37,316.926z"/>
		<path display="inline" fill="#FFFFFF" d="M626.597,356.011h-52.114v13.028h39.086v13.023h-52.113v-13.023H548.43v-39.087h13.024
			v-13.026h52.112v13.026h13.028L626.597,356.011L626.597,356.011z M600.541,342.981v-13.027h-26.059v13.027H600.541z"/>
		<path display="inline" fill="#FFFFFF" d="M717.789,382.064h-52.111v-13.024h-13.023v-39.087h13.023v-13.026h52.111v13.026h-39.081
			v39.087h39.081V382.064z"/>
		<path display="inline" fill="#FFFFFF" d="M835.043,382.064H808.99v-39.083h-26.058v39.083h-26.061v-78.168h26.061v26.058h39.08
			v13.027h13.028L835.043,382.064L835.043,382.064z"/>
	</g>
	<g>
		<polygon fill="#1D2636" points="177.5,34.5 183.5,337.514 225.5,355.5 308.5,382.5 425.014,427.5 857.438,427.5 1077.5,351.5 
			1098.5,269.104 1093.5,34.5 1087.5,23.5 728.5,16.5 214.5,16.5 		"/>
		<g id="Capa_3_1_">
			<g>
				<g>
					<path fill="#F7F7F7" d="M343.02,104.386c-36.074,0.651-72.141,1.426-108.191,2.32c0-9.024,0-18.042,0-27.067
						c63.156,0,126.31,0,189.466,0c-0.055,15.651-0.111,31.296-0.165,46.945c-9.026,0.237-18.047,0.487-27.069,0.761
						c-0.031,7.948-0.057,15.897-0.083,23.851c-9.022,0.402-18.042,0.825-27.06,1.271c-0.024,8.093-0.053,16.184-0.08,24.272
						c-9.014,0.598-18.03,1.226-27.039,1.875c-0.023,8.253-0.05,16.498-0.074,24.748c-9.009,0.82-18.012,1.676-27.011,2.568
						c-0.021,8.417-0.042,16.836-0.063,25.258c36.388-4.422,72.848-8.101,109.363-11.048c-0.028,7.896-0.056,15.792-0.084,23.689
						c-63.598,5.844-127.017,14.266-190.102,25.273c0-18.044,0-36.09,0-54.135c8.976-1.116,17.954-2.192,26.937-3.235
						c0.008-8.805,0.019-17.61,0.027-26.416c8.992-0.837,17.984-1.638,26.981-2.414c0.017-8.604,0.033-17.21,0.051-25.813
						c9.001-0.581,18.008-1.141,27.016-1.673c0.021-8.421,0.042-16.84,0.062-25.263c9.015-0.357,18.032-0.699,27.045-1.026
						C342.97,120.88,342.995,112.629,343.02,104.386z"/>
					<path fill="#F7F7F7" d="M613.701,167.902c-36.165,0.239-72.326,0.952-108.464,2.145c-0.043,15.066-0.089,30.136-0.13,45.205
						c36.164-1.788,72.361-2.86,108.563-3.216c-0.007,7.354-0.011,14.71-0.019,22.063c-54.328,0.626-108.646,3.124-162.85,7.502
						c0.188-53.984,0.372-107.974,0.559-161.96c54.129,0,108.263,0,162.393,0c-0.004,7.356-0.006,14.711-0.014,22.068
						c-36.104,0.058-72.21,0.233-108.313,0.537c-0.043,15.065-0.087,30.134-0.128,45.199c36.127-0.891,72.268-1.427,108.415-1.605
						C613.711,153.192,613.706,160.548,613.701,167.902z"/>
					<path fill="#F7F7F7" d="M695.104,190.303c0.019,14.752,0.035,29.508,0.058,44.264c-18.109-0.415-36.22-0.626-54.334-0.626
						c0-51.434,0-102.868,0-154.302c54.131,0,108.266,0,162.397,0c0.022,7.616,0.051,15.232,0.075,22.846
						c9.021,0.094,18.043,0.189,27.067,0.292c0.081,23.14,0.161,46.273,0.24,69.412c-18.062-0.832-36.123-1.546-54.193-2.144
						c0.023,7.534,0.047,15.066,0.063,22.602c9.041,0.371,18.076,0.781,27.109,1.229c0.022,7.617,0.052,15.229,0.075,22.847
						c9.445,0.483,18.882,1.014,28.322,1.594c0.027,7.794,0.055,15.589,0.082,23.386c-27.507-2.236-55.046-3.987-82.602-5.262
						c-0.019-7.466-0.033-14.932-0.053-22.396c-9.045-0.36-18.092-0.672-27.14-0.938c-0.016-7.417-0.027-14.832-0.04-22.245
						C713.189,190.639,704.146,190.45,695.104,190.303z M694.984,101.773c0.027,22.13,0.061,44.266,0.089,66.397
						c18.08,0.238,36.157,0.595,54.229,1.072c-0.015-7.47-0.036-14.938-0.053-22.401c9.036,0.177,18.068,0.381,27.099,0.603
						c-0.038-15.064-0.088-30.134-0.129-45.199C749.145,102.019,722.067,101.862,694.984,101.773z"/>
					<path fill="#F7F7F7" d="M1019.939,264.572c-44.841-7.292-89.838-13.281-134.936-17.971c-0.023-7.954-0.055-15.902-0.081-23.854
						c-9.021-0.804-18.041-1.561-27.071-2.276c-0.139-39.119-0.275-78.239-0.414-117.358c9.021,0.118,18.043,0.245,27.063,0.378
						c-0.024-7.949-0.05-15.898-0.079-23.852c45.109,0,90.223,0,135.333,0c0.006,8.807,0.017,17.614,0.023,26.419
						c9.015,0.21,18.024,0.424,27.04,0.648c0,45.109,0,90.22,0,135.333c-8.962-1.342-17.938-2.634-26.908-3.888
						C1019.92,246.96,1019.932,255.763,1019.939,264.572z M992.736,105.455c-27.051-0.581-54.105-1.094-81.166-1.538
						c0.133,40.457,0.264,80.918,0.397,121.377c27.039,2.679,54.041,5.759,80.999,9.243
						C992.893,191.512,992.814,148.483,992.736,105.455z"/>
					<path fill="#F7F7F7" d="M533.221,313.584h-23.929v59.829h-23.934v-59.829h-23.937v-11.969h71.798L533.221,313.584
						L533.221,313.584z"/>
					<path fill="#F7F7F7" d="M628.954,349.484h-47.868v11.97h35.9v11.961H569.12v-11.961h-11.963v-35.901h11.963v-11.966h47.866
						v11.966h11.968V349.484L628.954,349.484z M605.021,337.518v-11.967h-23.938v11.967H605.021z"/>
					<path fill="#F7F7F7" d="M712.714,373.413H664.85v-11.961h-11.965v-35.901h11.965v-11.967h47.864v11.967h-35.896v35.901h35.896
						V373.413z"/>
					<path fill="#F7F7F7" d="M820.411,373.413h-23.929v-35.896H772.55v35.896h-23.937v-71.798h23.937v23.936h35.896v11.967h11.966
						L820.411,373.413L820.411,373.413z"/>
				</g>
				<path fill="#F7F7F7" stroke="#3FA9F5" stroke-miterlimit="10" d="M171.254,345.081"/>
				<path fill="#F7F7F7" d="M1075.881,9H204.102c-9.851,0-19.297,3.87-26.252,10.338c-6.954,6.467-10.845,15.351-10.813,24.48
					l0.989,283.173c0.05,14.327,9.684,27.15,24.174,32.135l231.782,80.213c4.125,1.42,8.489,2.661,12.891,2.661h429.959
					c4.987,0,9.923-1.435,14.515-3.243l209.075-82.71c13.676-5.395,22.578-18.087,22.578-31.863V43.827
					C1113,24.851,1096.352,9,1075.881,9z M1083,324.184c0,2.757-1.629,5.244-4.363,6.323l-208.975,82.197
					c-0.918,0.365-1.833,0.296-2.83,0.296H436.873c-0.88,0-1.753,0.108-2.578-0.174l-231.781-79.572
					c-2.899-0.995-4.825-3.49-4.835-6.354L196.69,43.816c-0.006-1.826,0.771-4.041,2.164-5.334c1.391-1.294,3.279-2.48,5.25-2.48
					h871.779c4.096,0,7.119,4.03,7.119,7.827v280.355H1083z"/>
			</g>
		</g>
	</g>
</g>
<g id="Capa_2_1_" display="none">
	<g id="Capa_3_2_" display="inline">
		<g>
			<g>
				<path fill="#F7F7F7" d="M342.02,103.386c-36.074,0.651-72.141,1.426-108.191,2.32c0-9.024,0-18.042,0-27.067
					c63.156,0,126.31,0,189.466,0c-0.055,15.651-0.111,31.296-0.165,46.945c-9.026,0.237-18.047,0.487-27.069,0.761
					c-0.031,7.948-0.057,15.897-0.083,23.851c-9.022,0.402-18.042,0.825-27.06,1.271c-0.024,8.093-0.053,16.184-0.08,24.272
					c-9.014,0.598-18.03,1.226-27.039,1.875c-0.023,8.253-0.05,16.498-0.074,24.748c-9.009,0.82-18.012,1.676-27.011,2.568
					c-0.021,8.417-0.042,16.836-0.063,25.258c36.388-4.422,72.848-8.101,109.363-11.048c-0.028,7.896-0.056,15.792-0.084,23.689
					c-63.598,5.844-127.017,14.266-190.102,25.273c0-18.044,0-36.09,0-54.135c8.976-1.116,17.954-2.192,26.937-3.235
					c0.008-8.805,0.019-17.61,0.027-26.416c8.992-0.837,17.984-1.638,26.981-2.414c0.017-8.604,0.033-17.21,0.051-25.813
					c9.001-0.581,18.008-1.141,27.016-1.673c0.021-8.421,0.042-16.84,0.062-25.263c9.015-0.357,18.032-0.699,27.045-1.026
					C341.97,119.88,341.995,111.629,342.02,103.386z"/>
				<path fill="#F7F7F7" d="M612.701,166.902c-36.165,0.239-72.326,0.952-108.464,2.145c-0.043,15.066-0.089,30.136-0.13,45.205
					c36.164-1.788,72.361-2.86,108.563-3.216c-0.007,7.354-0.011,14.71-0.019,22.063c-54.328,0.626-108.646,3.124-162.85,7.502
					c0.188-53.984,0.372-107.974,0.559-161.96c54.129,0,108.263,0,162.393,0c-0.004,7.356-0.006,14.711-0.014,22.068
					c-36.104,0.058-72.21,0.233-108.313,0.537c-0.043,15.065-0.087,30.134-0.128,45.199c36.127-0.891,72.268-1.427,108.415-1.605
					C612.711,152.192,612.706,159.548,612.701,166.902z"/>
				<path fill="#F7F7F7" d="M694.104,189.303c0.019,14.752,0.035,29.508,0.058,44.264c-18.109-0.415-36.22-0.626-54.334-0.626
					c0-51.434,0-102.868,0-154.302c54.131,0,108.266,0,162.397,0c0.022,7.616,0.051,15.232,0.075,22.846
					c9.021,0.094,18.043,0.189,27.067,0.292c0.081,23.14,0.161,46.273,0.24,69.412c-18.062-0.832-36.123-1.546-54.193-2.144
					c0.023,7.534,0.047,15.066,0.063,22.602c9.041,0.371,18.076,0.781,27.109,1.229c0.022,7.617,0.052,15.229,0.075,22.847
					c9.445,0.483,18.882,1.014,28.322,1.594c0.027,7.794,0.055,15.589,0.082,23.386c-27.507-2.236-55.046-3.987-82.602-5.262
					c-0.019-7.466-0.033-14.932-0.053-22.396c-9.045-0.36-18.092-0.672-27.14-0.938c-0.016-7.417-0.027-14.832-0.04-22.245
					C712.189,189.639,703.146,189.45,694.104,189.303z M693.984,100.773c0.027,22.13,0.061,44.266,0.089,66.397
					c18.08,0.238,36.157,0.595,54.229,1.072c-0.015-7.47-0.036-14.938-0.053-22.401c9.036,0.177,18.068,0.381,27.099,0.603
					c-0.038-15.064-0.088-30.134-0.129-45.199C748.145,101.019,721.067,100.862,693.984,100.773z"/>
				<path fill="#F7F7F7" d="M1018.939,263.572c-44.841-7.292-89.838-13.281-134.936-17.971c-0.023-7.954-0.055-15.902-0.081-23.854
					c-9.021-0.804-18.041-1.561-27.071-2.276c-0.139-39.119-0.275-78.239-0.414-117.358c9.021,0.118,18.043,0.245,27.063,0.378
					c-0.024-7.949-0.05-15.898-0.079-23.852c45.109,0,90.223,0,135.333,0c0.006,8.807,0.017,17.614,0.023,26.419
					c9.015,0.21,18.024,0.424,27.04,0.648c0,45.109,0,90.22,0,135.333c-8.962-1.342-17.938-2.634-26.908-3.888
					C1018.92,245.96,1018.932,254.763,1018.939,263.572z M991.736,104.455c-27.051-0.581-54.105-1.094-81.166-1.538
					c0.133,40.457,0.264,80.918,0.397,121.377c27.039,2.679,54.041,5.759,80.999,9.243
					C991.893,190.512,991.814,147.483,991.736,104.455z"/>
				<path fill="#F7F7F7" d="M532.221,312.584h-23.929v59.829h-23.934v-59.829h-23.937v-11.969h71.798L532.221,312.584
					L532.221,312.584z"/>
				<path fill="#F7F7F7" d="M627.954,348.484h-47.868v11.97h35.9v11.961H568.12v-11.961h-11.963v-35.901h11.963v-11.966h47.866
					v11.966h11.968V348.484L627.954,348.484z M604.021,336.518v-11.967h-23.938v11.967H604.021z"/>
				<path fill="#F7F7F7" d="M711.714,372.413H663.85v-11.961h-11.965v-35.901h11.965v-11.967h47.864v11.967h-35.896v35.901h35.896
					V372.413z"/>
				<path fill="#F7F7F7" d="M819.411,372.413h-23.929v-35.896H771.55v35.896h-23.937v-71.798h23.937v23.936h35.896v11.967h11.966
					L819.411,372.413L819.411,372.413z"/>
			</g>
			<path fill="#F7F7F7" stroke="#3FA9F5" stroke-miterlimit="10" d="M170.254,344.081"/>
			<path fill="#F7F7F7" d="M1074.881,8H203.102c-9.851,0-19.297,3.87-26.252,10.338c-6.954,6.467-10.845,15.351-10.813,24.48
				l0.989,283.173c0.05,14.327,9.684,27.15,24.174,32.135l231.782,80.213c4.125,1.42,8.489,2.661,12.891,2.661h429.959
				c4.987,0,9.923-1.435,14.515-3.243l209.075-82.71c13.676-5.395,22.578-18.087,22.578-31.863V42.827
				C1112,23.851,1095.352,8,1074.881,8z M1082,323.184c0,2.757-1.629,5.244-4.363,6.323l-208.975,82.197
				c-0.918,0.365-1.833,0.296-2.83,0.296H435.873c-0.88,0-1.753,0.108-2.578-0.174l-231.781-79.572
				c-2.899-0.995-4.825-3.49-4.835-6.354L195.69,42.816c-0.006-1.826,0.771-4.041,2.164-5.334c1.391-1.294,3.279-2.48,5.25-2.48
				h871.779c4.096,0,7.119,4.03,7.119,7.827v280.355H1082z"/>
		</g>
	</g>
</g>
</svg>
