<?xml version="1.0" encoding="utf-8"?>
<!-- Generator: Adobe Illustrator 16.0.3, SVG Export Plug-In . SVG Version: 6.00 Build 0)  -->
<!DOCTYPE svg PUBLIC "-//W3C//DTD SVG 1.1//EN" "http://www.w3.org/Graphics/SVG/1.1/DTD/svg11.dtd">
<svg version="1.1" id="Capa_1" xmlns="http://www.w3.org/2000/svg" xmlns:xlink="http://www.w3.org/1999/xlink" x="0px" y="0px"
	 width="1200px" height="580px" viewBox="0 0 1200 580" enable-background="new 0 0 1200 580" xml:space="preserve">
<path opacity="0.3" fill="#FFFA72" d="M622.701,47.258C587.449-32.992,461.248-73.116,244.092-73.116
	c-325.73,0-263.958,165.071-229.65,272.168C48.748,306.15,249.356,354.391,315.146,291.99
	c65.795-62.402,223.196-73.908,289.391-102.674C648.668,170.14,654.723,122.787,622.701,47.258L622.701,47.258z"/>
<path opacity="0.3" fill="#D6F2FF" d="M1093.91,196.384c19.619-224.7-274.584-337.046-882.623-337.046
	c-912.048,0-982.47,462.201-1044.312,762.072s428.732,434.939,704.949,260.223C148.151,706.912,605.838,674.695,833.6,594.15
	c151.84-53.695,238.613-186.285,260.314-397.766H1093.91z"/>
<path opacity="0.3" fill="#28282B" d="M1058.571,183.957c7.553-212.662-276.395-318.99-851.861-318.99
	c-863.189,0-907.183,437.439-951.013,721.246C-788.136,870.02-317.222,997.854-64.365,832.496
	C188.5,667.135,620.088,636.645,831.701,560.416c141.072-50.82,216.699-176.307,226.871-376.459H1058.571z"/>
<path opacity="0.3" fill="#5D5D5D" d="M1022.334,171.53c-2.803-200.625-275.645-300.934-818.535-300.934
	c-814.328,0-835.41,412.679-863.511,680.421c-28.1,267.742,422.127,388.34,652.951,232.342
	c230.832-156.002,636.568-184.768,832.643-256.68c130.717-47.945,196.203-166.326,196.455-355.15H1022.334z"/>
<path opacity="0.3" fill="#28282B" d="M985.278,159.103C973.684-29.485,712.735-123.775,202.416-123.775
	c-765.47,0-766.855,387.919-781.312,639.595c-14.455,251.678,414.145,365.039,624.15,218.402
	c210.014-146.643,590.123-173.68,771.221-241.279c120.73-45.066,177.002-156.346,168.807-333.841H985.278z"/>
<path opacity="0.3" fill="#28282B" d="M947.467,146.675C928.52-29.875,680.184-118.146,202.438-118.146
	c-716.609,0-701.265,363.157-704.001,598.771C-504.3,716.238-98.195,822.363,92.117,685.084
	C282.433,547.805,637.119,522.492,803.76,459.207c111.092-42.189,158.996-146.367,143.709-312.532H947.467z"/>
<path opacity="0.3" fill="#4D4D59" d="M908.953,134.248C883.996-30.264,648.94-112.518,203.768-112.518
	c-667.75,0-638.429,338.396-631.234,557.947c7.197,219.547,390.004,318.436,561.66,190.52
	c171.664-127.922,501.119-151.51,653.779-210.479c101.771-39.313,142.102-136.387,120.982-291.223H908.953z"/>
<path opacity="0.3" fill="#575766" d="M869.783,121.821C840.069-30.653,618.916-106.889,206.319-106.889
	c-618.888,0-578.169,313.635-562.712,517.121c15.457,203.484,374.21,295.137,528.189,176.578
	C325.777,468.25,630.18,446.391,769.311,391.734c92.752-36.436,126.244-126.407,100.475-269.914H869.783z"/>
<path opacity="0.3" fill="#6F6F84" d="M829.994,109.394C796.701-31.043,590.047-101.26,210.024-101.26
	c-570.029,0-520.339,288.875-498.197,476.295c22.145,187.42,356.136,271.838,493.351,162.641
	C342.396,428.475,621.92,408.34,747.944,357.998c84.012-33.559,111.365-116.429,82.053-248.604H829.994z"/>
<path opacity="0.3" fill="#575766" d="M789.619,96.966C753.865-31.433,562.269-95.631,214.819-95.631
	c-521.169,0-464.808,264.113-437.472,435.469c27.334,171.355,335.892,248.539,457.216,148.699
	c121.324-99.84,376.127-118.25,489.443-164.273c75.541-30.686,97.414-106.452,65.615-227.297H789.619z"/>
<path opacity="0.3" fill="#4D4D59" d="M748.684,84.539C711.541-31.823,535.536-90.002,220.658-90.002
	c-472.31,0-411.48,239.353-380.38,394.645c31.102,155.291,313.582,225.236,419.843,134.76
	c106.265-90.482,336.5-107.166,437.492-148.875c67.328-27.809,84.354-96.471,51.072-205.988H748.684z"/>
<path opacity="0.3" fill="#373742" d="M707.207,72.112C669.705-32.213,509.807-84.374,227.504-84.374
	c-423.451,0-360.271,214.592-326.779,353.82C-65.782,408.672,190,471.383,282.002,390.264
	c92.005-81.119,297.819-96.078,386.86-133.474c59.357-24.931,72.143-86.491,38.348-184.678H707.207z"/>
<path opacity="0.3" fill="#28282B" d="M665.209,59.685c-36.863-92.288-180.157-138.43-429.887-138.43
	c-374.591,0-311.113,189.832-276.562,312.993c34.55,123.164,263.039,178.638,341.556,106.878
	c78.52-71.76,260.058-84.993,337.502-118.074c51.627-22.054,60.758-76.51,27.393-163.368H665.209z"/>
</svg>
